<svg width="71" height="51" viewBox="0 0 71 51" fill="none" xmlns="http://www.w3.org/2000/svg">
	<path fill-rule="evenodd" clip-rule="evenodd" d="M69.5 46.5H21.5C20.948 46.5 20.5 46.053 20.5 45.5C20.5 44.947 20.948 44.5 21.5 44.5H69.5C70.053 44.5 70.5 44.947 70.5 45.5C70.5 46.053 70.053 46.5 69.5 46.5ZM21.5 24.5H47.5C48.053 24.5 48.5 24.947 48.5 25.5C48.5 26.053 48.053 26.5 47.5 26.5H21.5C20.948 26.5 20.5 26.053 20.5 25.5C20.5 24.947 20.948 24.5 21.5 24.5ZM58.5 6.5H21.5C20.948 6.5 20.5 6.052 20.5 5.5C20.5 4.947 20.948 4.5 21.5 4.5H58.5C59.053 4.5 59.5 4.947 59.5 5.5C59.5 6.052 59.053 6.5 58.5 6.5ZM5.5 50.5C2.739 50.5 0.5 48.262 0.5 45.5C0.5 42.738 2.739 40.5 5.5 40.5C8.262 40.5 10.5 42.738 10.5 45.5C10.5 48.262 8.262 50.5 5.5 50.5ZM5.5 30.5C2.739 30.5 0.5 28.262 0.5 25.5C0.5 22.738 2.739 20.5 5.5 20.5C8.262 20.5 10.5 22.738 10.5 25.5C10.5 28.262 8.262 30.5 5.5 30.5ZM5.5 10.5C2.739 10.5 0.5 8.261 0.5 5.5C0.5 2.738 2.739 0.5 5.5 0.5C8.262 0.5 10.5 2.738 10.5 5.5C10.5 8.261 8.262 10.5 5.5 10.5Z" fill="white" />
</svg>
