<svg width="76" height="36" viewBox="0 0 76 36" fill="none" xmlns="http://www.w3.org/2000/svg">
	<path fill-rule="evenodd" clip-rule="evenodd" d="M72.512 35.477H30C28.3555 35.477 27.0156 34.1372 27.0156 32.4926V3.5126C27.0156 1.8681 28.3554 0.528198 30 0.528198H72.512C74.1565 0.528198 75.4964 1.868 75.4964 3.5126V32.4926C75.4964 34.1371 74.1566 35.477 72.512 35.477ZM30 2.086C29.2149 2.086 28.5781 2.72272 28.5781 3.5079V32.4879C28.5781 33.2731 29.2148 33.9098 30 33.9098H72.512C73.2972 33.9098 73.9339 33.2731 73.9339 32.4879V3.5079C73.9339 2.72274 73.2972 2.086 72.512 2.086H30Z" fill="black" />
	<path fill-rule="evenodd" clip-rule="evenodd" d="M56.531 18.32C56.3162 18.32 56.1013 18.2302 55.949 18.0583C55.6599 17.738 55.6873 17.2419 56.0115 16.9567L73.4845 1.3047C73.8048 1.01564 74.3009 1.04298 74.5861 1.3672C74.8751 1.68751 74.8478 2.18361 74.5236 2.4688L57.0506 18.1208C56.9021 18.2536 56.7146 18.32 56.531 18.32ZM45.984 18.32C45.7965 18.32 45.6129 18.2536 45.4645 18.1208L27.9915 2.4688C27.6712 2.17974 27.6438 1.68755 27.929 1.3672C28.218 1.04689 28.7102 1.01954 29.0306 1.3047L46.5036 16.9567C46.8239 17.2458 46.8512 17.738 46.5661 18.0583C46.4098 18.2302 46.1989 18.32 45.984 18.32Z" fill="black" />
	<path fill-rule="evenodd" clip-rule="evenodd" d="M28.5125 34.891C28.2976 34.891 28.0828 34.8051 27.9304 34.6293C27.6414 34.309 27.6687 33.8129 27.9929 33.5277L45.4659 17.8757C45.7862 17.5866 46.2823 17.614 46.5675 17.9382C46.8566 18.2585 46.8293 18.7546 46.505 19.0398L29.032 34.6918C28.8836 34.8246 28.6961 34.891 28.5125 34.891ZM74.0045 34.891C73.817 34.891 73.6334 34.8246 73.4849 34.6918L56.0119 19.0398C55.6916 18.7507 55.6643 18.2585 55.9494 17.9382C56.2385 17.6179 56.7307 17.5905 57.051 17.8757L74.524 33.5277C74.8443 33.8167 74.8717 34.3089 74.5865 34.6293C74.4303 34.8012 74.2193 34.8871 74.0045 34.8871L74.0045 34.891Z" fill="black" />
	<path fill-rule="evenodd" clip-rule="evenodd" d="M51.2583 24.074C47.9106 24.074 45.1841 21.3474 45.1841 17.9998C45.1841 14.6522 47.9107 11.9256 51.2583 11.9256C54.606 11.9256 57.3325 14.6522 57.3325 17.9998C57.3325 21.3474 54.6059 24.074 51.2583 24.074ZM51.2583 13.488C48.77 13.488 46.7466 15.5114 46.7466 17.9997C46.7466 20.488 48.77 22.5114 51.2583 22.5114C53.7466 22.5114 55.77 20.488 55.77 17.9997C55.77 15.5114 53.7466 13.488 51.2583 13.488Z" fill="black" />
	<path fill-rule="evenodd" clip-rule="evenodd" d="M22.9062 2.89502H10.8442C10.4145 2.89502 10.063 2.54346 10.063 2.11377C10.063 1.68408 10.4145 1.33252 10.8442 1.33252H22.9062C23.3359 1.33252 23.6875 1.68408 23.6875 2.11377C23.6875 2.54346 23.3359 2.89502 22.9062 2.89502Z" fill="black" />
	<path fill-rule="evenodd" clip-rule="evenodd" d="M17.9062 10.84H5.84424C5.41455 10.84 5.06299 10.4885 5.06299 10.0588C5.06299 9.62909 5.41455 9.27753 5.84424 9.27753H17.9062C18.3359 9.27753 18.6875 9.62909 18.6875 10.0588C18.6875 10.4885 18.3359 10.84 17.9062 10.84Z" fill="black" />
	<path fill-rule="evenodd" clip-rule="evenodd" d="M13.3442 18.781H1.28223C0.852537 18.781 0.500977 18.4294 0.500977 17.9998C0.500977 17.5701 0.852537 17.2185 1.28223 17.2185H13.3442C13.7739 17.2185 14.1255 17.5701 14.1255 17.9998C14.1255 18.4294 13.7739 18.781 13.3442 18.781Z" fill="black" />
	<path fill-rule="evenodd" clip-rule="evenodd" d="M17.9062 26.723H5.84424C5.41455 26.723 5.06299 26.3715 5.06299 25.9418C5.06299 25.5121 5.41455 25.1605 5.84424 25.1605H17.9062C18.3359 25.1605 18.6875 25.5121 18.6875 25.9418C18.6875 26.3715 18.3359 26.723 17.9062 26.723Z" fill="black" />
	<path fill-rule="evenodd" clip-rule="evenodd" d="M22.9062 34.668H10.8442C10.4145 34.668 10.063 34.3164 10.063 33.8867C10.063 33.457 10.4145 33.1055 10.8442 33.1055H22.9062C23.3359 33.1055 23.6875 33.457 23.6875 33.8867C23.6875 34.3164 23.3359 34.668 22.9062 34.668Z" fill="black" />
	<path fill-rule="evenodd" clip-rule="evenodd" d="M69.8013 26.473C69.3716 26.473 69.02 26.1214 69.02 25.6917V10.3127C69.02 9.88305 69.3716 9.53149 69.8013 9.53149C70.231 9.53149 70.5825 9.88305 70.5825 10.3127V25.6917C70.5825 26.1214 70.2349 26.473 69.8013 26.473Z" fill="black" />
	<path fill-rule="evenodd" clip-rule="evenodd" d="M32.7153 26.473C32.2856 26.473 31.9341 26.1214 31.9341 25.6917V10.3127C31.9341 9.88305 32.2856 9.53149 32.7153 9.53149C33.145 9.53149 33.4966 9.88305 33.4966 10.3127V25.6917C33.4966 26.1214 33.145 26.473 32.7153 26.473Z" fill="black" />
</svg>
