<svg width="86" height="88" viewBox="0 0 86 88" fill="none" xmlns="http://www.w3.org/2000/svg">
	<path fill-rule="evenodd" clip-rule="evenodd" d="M34.8749 62.434H3.05092V82.032H22.0239L25.9536 87.2117L29.9536 82.032H34.8677L34.8749 62.434ZM67.0119 8.21098C66.4299 7.80864 65.84 7.42973 65.2424 7.05478L64.1565 8.82038C64.7268 9.16413 65.2893 9.53522 65.8479 9.91418L67.0119 8.21098ZM43.6799 1.05078C43.6526 1.02734 43.6252 1.0039 43.594 0.984373C43.5393 0.94531 43.4807 0.910154 43.4221 0.882812C43.3323 0.839844 43.2346 0.808595 43.1369 0.79297H43.1057V0.789062H42.7151L42.4416 0.796875H42.1682L41.6213 0.8125L41.3479 0.828125L40.9807 0.839845L41.0862 2.90234L41.4221 2.88672L41.6877 2.87891L42.2033 2.86328L42.4729 2.85938H43.1057V2.85156C43.5119 2.80859 43.8518 2.52734 43.9768 2.14062C44.1018 1.75 43.9846 1.32417 43.6799 1.05078ZM63.4029 5.99998C62.7857 5.66014 62.1568 5.33592 61.5201 5.02342L60.6256 6.88672C61.2272 7.17969 61.8248 7.48828 62.4147 7.8086L63.4029 5.99998ZM59.5982 4.15228C58.9498 3.87494 58.2935 3.61712 57.6294 3.37103L56.9185 5.31243C57.5513 5.55071 58.1724 5.78899 58.7935 6.05462L59.5982 4.15228ZM55.6216 2.69528C54.9458 2.48434 54.27 2.29684 53.5864 2.11716L53.0747 4.11716C53.7231 4.28122 54.3677 4.46872 55.0122 4.66794L55.6216 2.69528ZM51.5239 1.64448C50.8286 1.50386 50.1294 1.37886 49.4341 1.27339L49.1294 3.31639C49.7935 3.42186 50.4497 3.53514 51.1138 3.66795L51.5239 1.64448ZM47.3325 1.00776C46.6294 0.937447 45.9302 0.882759 45.227 0.847599L45.1294 2.9101C45.7973 2.94135 46.4692 2.99604 47.1294 3.06244L47.3325 1.00776ZM38.8794 0.988227L38.6411 1.00776L38.3755 1.0351L38.1099 1.07026L37.8365 1.10151L37.5708 1.13667L37.3052 1.16792L37.0396 1.20307L36.7818 1.24213L37.0787 3.28513L37.3247 3.25388L37.5787 3.21873L37.8287 3.18748L38.0865 3.15232L38.3365 3.12107L38.5865 3.09373L38.8443 3.06638L39.0787 3.04685L38.8794 0.988227ZM34.6958 1.59761L34.4185 1.6562L34.1607 1.71089L33.8951 1.76167L33.6411 1.82026L33.3833 1.87105L33.1255 1.93745L32.8677 1.99605L32.6294 2.05464L33.1333 4.05464L33.3599 3.99995L33.8521 3.88276L34.0982 3.82807L34.3443 3.76948L34.5904 3.72261L34.8364 3.66792L35.1099 3.61714L34.6958 1.59761ZM30.5903 2.62491L30.3325 2.70303L30.0825 2.78116L29.8364 2.85928L29.5825 2.93741L29.3364 3.02335L29.0903 3.10147L28.8442 3.18741L28.5708 3.28506L29.2817 5.22256L29.5278 5.13663L29.7661 5.0585L29.9966 4.98038L30.2349 4.90225L30.4692 4.82413L30.7075 4.74991L30.9458 4.67178L31.1841 4.59756L30.5903 2.62491ZM26.602 4.05851L26.4223 4.13663L26.1841 4.23429L25.7075 4.44523L25.4731 4.5507L25.2348 4.66398L25.0044 4.76945L24.6723 4.92961L25.5669 6.78511L25.8833 6.64058L26.102 6.53902L26.3286 6.43355L26.5551 6.33589L26.7817 6.23042L27.0083 6.13277L27.2348 6.03902L27.4184 5.96089L26.602 4.05851ZM22.7817 5.88271L22.477 6.05459L21.7973 6.42959L21.5786 6.55459L21.352 6.6874L21.1333 6.82021L20.9458 6.93349L22.0161 8.69519L22.1958 8.58972L22.4067 8.46472L22.6176 8.34753L22.8286 8.22253L23.0395 8.10534L23.2583 7.98425L23.4692 7.86706L23.7661 7.69909L22.7817 5.88271ZM19.1606 8.08581L18.9731 8.21081L18.1294 8.78893L17.7075 9.09362L17.4223 9.30456L18.6762 10.9491L18.934 10.7576L19.3325 10.4686L20.1294 9.90609L20.313 9.78109L19.1606 8.08581ZM15.7778 10.6249L15.5278 10.8437L15.3286 11.0077L15.1372 11.1757L14.9458 11.3397L14.563 11.6835L14.3794 11.8476L14.1997 12.0155L15.5981 13.535L15.7621 13.3827L15.9496 13.2186L16.309 12.8983L16.4926 12.7382L16.6801 12.578L16.8637 12.4178L17.1137 12.2069L15.7778 10.6249ZM12.6606 13.4882L12.5278 13.6288L12.3481 13.8085L12.1684 13.996L11.9965 14.1796L11.8169 14.3671L11.645 14.5585L11.4731 14.746L11.3012 14.9374L11.2153 15.0429L12.7622 16.4101L13.0083 16.1445L13.1684 15.9648L13.3325 15.7851L13.5005 15.6054L13.6723 15.4257L13.8403 15.2538L14.0122 15.0741L14.145 14.9413L12.6606 13.4882ZM9.84422 16.6444L9.65281 16.8827L9.50047 17.0819L9.34031 17.2928L9.18015 17.4921L8.87546 17.9139L8.72312 18.121L8.55515 18.3475L10.2348 19.5545L10.3794 19.3436L10.5239 19.1444L10.6684 18.953L10.8208 18.7615L10.9653 18.5701L11.1176 18.3787L11.2622 18.1873L11.4497 17.9568L9.84422 16.6444ZM7.35202 20.0663L7.26608 20.2069L7.12546 20.4257L6.98484 20.6366L6.84422 20.8554L6.31297 21.7304L6.23485 21.8632L8.01605 22.9062L8.09027 22.789L8.46527 22.1562L8.59808 21.9452L8.72308 21.7343L8.9887 21.3124L9.08245 21.1718L7.35202 20.0663ZM5.21922 23.7108L5.07469 23.9842L4.96141 24.2186L4.84422 24.4491L4.73094 24.6796L4.61766 24.9139L4.50438 25.1444L4.39891 25.3788L4.28563 25.6249L6.16843 26.4725L6.16062 26.4804L6.37156 26.0272L6.5825 25.5897L6.68797 25.3632L6.91453 24.9257L7.04734 24.6679L5.21922 23.7108ZM3.44972 27.5624L3.37159 27.7538L3.27784 27.9999L3.18409 28.2382L3.09034 28.4843L3.00441 28.7304L2.91066 28.9765L2.82472 29.2225L2.71144 29.5468L4.66844 30.2108L4.77391 29.9061L4.85203 29.6718L5.02391 29.2108L5.10985 28.9764L5.2036 28.746L5.28954 28.5194L5.36766 28.3202L3.44972 27.5624ZM2.08252 31.5624L2.03564 31.7069L1.96924 31.9608L1.89502 32.2108L1.82861 32.4687L1.76221 32.7187L1.6958 32.9765L1.63721 33.2265L1.5708 33.4843L1.54346 33.6015L3.55906 34.0663L3.63718 33.7147L3.69578 33.4765L3.76218 33.2304L3.82078 32.9843L3.88718 32.746L3.95359 32.4999L4.01999 32.2616L4.06687 32.1171L2.08252 31.5624ZM1.10596 35.6835L1.07862 35.828L0.984865 36.3593L0.945802 36.6171L0.828612 37.414L0.781737 37.7812L2.82864 38.039L2.87551 37.6991L2.91067 37.4491L2.94973 37.1952L3.02786 36.703L3.06692 36.453L3.11379 36.1991L3.14114 36.0546L1.10596 35.6835ZM0.55908 39.8944L0.543455 40.1053L0.48486 40.9257L0.473141 41.1991L0.441891 41.746L0.43408 42.0194L2.49658 42.078L2.5122 41.828L2.52002 41.5702L2.53564 41.3124L2.54736 41.0468L2.56689 40.7968L2.58252 40.539L2.60205 40.2812L2.62158 40.0702L0.55908 39.8944ZM0.42627 44.1171C0.434083 44.8202 0.465333 45.5312 0.512208 46.2304L2.57471 46.0898C2.52783 45.4218 2.50049 44.75 2.48877 44.0742L0.42627 44.1171ZM0.703609 48.3398C0.781734 49.0351 0.883299 49.7382 1.00439 50.4375L3.03959 50.0938C2.92631 49.4375 2.82865 48.7696 2.75443 48.0938L0.703609 48.3398ZM1.39892 52.5117C1.55126 53.2031 1.71533 53.8906 1.90283 54.5664L3.90283 54.0312C3.72314 53.3789 3.56299 52.7304 3.41845 52.0742L1.39892 52.5117ZM2.51222 56.6015C2.73097 57.2695 2.96144 57.9335 3.21534 58.5898L5.14504 57.8515C4.90676 57.2187 4.6802 56.5898 4.47707 55.957L2.51222 56.6015ZM41.0672 85.9105C41.7117 85.9379 42.3524 85.9496 42.9969 85.9496H43.1805L43.1688 83.8793L42.9969 83.8871C42.3797 83.8871 41.7703 83.8676 41.161 83.8402L41.0672 85.9105ZM45.2977 85.891L45.4579 85.8832L46.2782 85.8246L46.5438 85.805L46.8172 85.7855L47.0907 85.7582L47.4227 85.723L47.1962 83.6683L46.8915 83.6996L46.6415 83.7191L46.3837 83.7464L45.868 83.7855L45.6102 83.7972L45.3524 83.8128L45.2001 83.8285L45.2977 85.891ZM49.5165 85.4535L49.7431 85.4183L50.0087 85.3714L50.2743 85.3324L50.5321 85.2855L50.7978 85.2386L51.0556 85.1879L51.3212 85.141L51.5985 85.0824L51.1767 83.059L50.9188 83.1098L50.6727 83.1566L50.4188 83.2035L50.1727 83.2504L49.9227 83.2973L49.6688 83.3363L49.4188 83.3754L49.1923 83.4145L49.5165 85.4535ZM53.661 84.6058L53.8954 84.5472L54.1454 84.4808L54.4032 84.4066L54.6532 84.3324L54.9032 84.266L55.1571 84.1878L55.4071 84.1136L55.6923 84.0277L55.0673 82.0589L54.8017 82.137L54.5634 82.2112L54.3251 82.2776L54.0868 82.3519L53.8446 82.4222L53.3681 82.555L53.1376 82.6136L53.661 84.6058ZM57.7001 83.3441L57.8876 83.2777L58.1259 83.184L58.6181 82.9965L58.8564 82.8988L59.0946 82.7972L59.3407 82.7035L59.6728 82.559L58.8564 80.6645L58.54 80.7973L58.3095 80.891L58.0829 80.9848L57.8485 81.0785L57.622 81.1645L57.3876 81.2582L57.1571 81.3441L56.9735 81.4106L57.7001 83.3441ZM61.5946 81.6879L61.9266 81.5278L62.161 81.4106L62.3915 81.2895L62.6181 81.1762L62.8485 81.059L63.0751 80.934L63.3016 80.8168L63.4813 80.7153L62.4735 78.9028L62.3017 78.9965L62.0907 79.1137L61.6532 79.3403L61.4423 79.4535L61.2235 79.5668L60.997 79.6801L60.6806 79.8324L61.5946 81.6879ZM65.3055 79.6449L65.5165 79.5199L65.7352 79.3793L65.9461 79.2387L66.1649 79.0981L66.5868 78.8168L66.8055 78.6723L67.079 78.4887L65.8993 76.7934L65.6454 76.9653L65.4461 77.1059L65.2391 77.2387L65.0282 77.3715L64.8211 77.5043L64.6102 77.6371L64.3993 77.7621L64.1883 77.8949L65.3055 79.6449ZM68.7899 77.2504L69.0829 77.0239L69.2938 76.8637L70.0907 76.2231L70.2899 76.059L70.4501 75.9184L69.1181 74.3403L68.9657 74.4731L68.7822 74.6254L68.5907 74.7856L68.4072 74.9379L68.2157 75.0903L68.0243 75.2348L67.8329 75.3872L67.5556 75.6059L68.7899 77.2504ZM72.0243 74.5199L72.1884 74.3676L72.3759 74.1957L72.5556 74.016L72.9228 73.6566L73.2821 73.2972L73.5321 73.0394L72.0516 71.6097L71.8134 71.848L71.6493 72.0199L71.4774 72.1918L71.2977 72.3597L71.1258 72.5316L70.954 72.6957L70.7743 72.8676L70.6141 73.0121L72.0243 74.5199ZM74.9735 71.4887L75.1923 71.2348L75.3563 71.0434L75.5282 70.8442L75.6923 70.6528L75.8524 70.4535L76.0204 70.2543L76.1806 70.0551L76.3329 69.8637L74.7157 68.5785L74.411 68.9457L74.2587 69.1371L74.1063 69.3207L73.9462 69.5082L73.6259 69.8754L73.4149 70.1137L74.9735 71.4887ZM77.6063 68.1723L77.7196 68.02L77.8641 67.809L78.0087 67.602L78.4422 66.9692L78.5829 66.7504L78.7938 66.4262L77.0555 65.3129L76.9891 65.4145L76.8563 65.6254L76.7157 65.8325L76.5829 66.0317L76.4422 66.2387L76.0204 66.8364L75.9071 66.9887L77.6063 68.1723ZM79.8993 64.6176L80.0595 64.3403L80.4345 63.6606L80.5517 63.434L80.6728 63.2075L80.7899 62.9731L80.9071 62.7543L79.0633 61.8129L78.9579 62.0239L78.8446 62.2348L78.7235 62.4536L78.6102 62.6723L78.493 62.8832L78.3719 63.0942L78.2547 63.3051L78.1024 63.5786L79.8993 64.6176ZM81.8446 60.8481L81.9227 60.6567L82.0282 60.4223L82.1337 60.184L82.2352 59.9458L82.3329 59.7075L82.4345 59.4692L82.5321 59.2231L82.6571 58.8989L80.7352 58.1489L80.618 58.4536L80.5243 58.688L80.4305 58.9145L80.3329 59.1411L80.2391 59.3716L80.1376 59.5981L80.0399 59.8247L79.954 60.0161L81.8446 60.8481ZM83.3837 56.9106L83.4306 56.7778L83.5087 56.5317L83.5868 56.2778L83.665 56.0317L83.7431 55.7817L83.8173 55.5317L83.8915 55.2778L83.9658 55.0278L84.0048 54.8872L82.0165 54.3364L81.9774 54.4614L81.911 54.6997L81.8368 54.938L81.7704 55.1762L81.6962 55.4145L81.6181 55.6528L81.5439 55.8911L81.4657 56.1216L81.4228 56.2583L83.3837 56.9106ZM84.5321 52.8325L84.6102 52.4692L84.7118 51.9536L84.7665 51.6958L84.8173 51.438L84.8641 51.1724L84.9188 50.9146L84.9384 50.7622L82.8954 50.4068L82.8758 50.5474L82.829 50.7935L82.7821 51.0435L82.7352 51.2896L82.6805 51.5435L82.6297 51.7896L82.5751 52.0356L82.5008 52.3872L84.5321 52.8325ZM85.2626 48.6606L85.2743 48.5278L85.3095 48.2544L85.3368 47.9887L85.372 47.7231L85.3993 47.4497L85.4188 47.1762L85.4462 46.9106L85.4735 46.5473L83.411 46.4067L83.3837 46.7388L83.3642 46.9966L83.3446 47.2505L83.2899 47.7661L83.2548 48.0161L83.2274 48.27L83.2079 48.4106L85.2626 48.6606ZM85.579 44.4379L85.5868 44.1918V43.9184L85.5946 43.6449L85.5868 43.3676C85.5868 43.0239 85.579 42.6723 85.5751 42.3246L83.5048 42.3754C83.5165 42.6996 83.5165 43.0316 83.5165 43.3637V43.891L83.5087 44.1566L83.5009 44.3949L85.579 44.4379ZM85.4735 40.2152C85.4267 39.5121 85.3563 38.809 85.2626 38.1097L83.2118 38.3597C83.2977 39.0238 83.3641 39.6917 83.411 40.3597L85.4735 40.2152ZM48.3955 14.3952H80.2195V33.9972H61.2395L57.3098 39.1769L53.3098 33.9972H48.3957L48.3955 14.3952ZM52.9228 29.2932C52.6416 29.301 52.3681 29.1995 52.1689 29.0042C51.9658 28.8088 51.8525 28.5393 51.8525 28.2581C51.8525 27.9807 51.9658 27.7112 52.1689 27.5159C52.3681 27.3206 52.6416 27.2151 52.9228 27.2268H75.6928H75.6889C75.9702 27.2151 76.2397 27.3206 76.4428 27.5159C76.6421 27.7112 76.7592 27.9807 76.7592 28.2581C76.7592 28.5393 76.6421 28.8088 76.4428 29.0042C76.2397 29.1995 75.9702 29.301 75.6889 29.2932H52.9228ZM52.9228 24.6721C52.6416 24.6799 52.3681 24.5784 52.1689 24.3831C51.9658 24.1877 51.8525 23.9182 51.8525 23.637C51.8525 23.3596 51.9658 23.0901 52.1689 22.8948C52.3681 22.6995 52.6416 22.594 52.9228 22.6057H75.6928H75.6889C75.9702 22.594 76.2397 22.6995 76.4428 22.8948C76.6421 23.0901 76.7592 23.3596 76.7592 23.637C76.7592 23.9182 76.6421 24.1877 76.4428 24.3831C76.2397 24.5784 75.9702 24.6799 75.6889 24.6721H52.9228ZM52.9228 20.051C52.6416 20.0588 52.372 19.9573 52.1689 19.762C51.9697 19.5666 51.8564 19.301 51.8564 19.0198C51.8564 18.7424 51.9697 18.4729 52.1689 18.2815C52.372 18.0862 52.6416 17.9807 52.9228 17.9885H75.6928H75.6889C75.9702 17.9807 76.2397 18.0862 76.4389 18.2815C76.642 18.4729 76.7553 18.7424 76.7553 19.0198C76.7553 19.301 76.642 19.5666 76.4389 19.762C76.2397 19.9573 75.9702 20.0588 75.6889 20.051H52.9228ZM46.4736 53.66C47.4502 54.3436 48.7939 54.1288 49.5048 53.1756L51.8642 50.0467C52.747 48.8631 54.3056 48.4061 55.6845 48.9334L68.6615 53.7772V53.7733C70.0599 54.2851 70.9427 55.6717 70.8099 57.1561L70.2005 64.7538C70.056 66.535 68.5286 67.8827 66.7396 67.8085C41.5286 66.6679 18.5447 43.6835 17.4037 18.4725C17.3294 16.6873 18.677 15.16 20.4583 15.0116L28.056 14.4023C29.5404 14.2733 30.9311 15.1562 31.4389 16.5585L36.2826 29.5355L36.2787 29.5315C36.8061 30.9104 36.353 32.469 35.1654 33.344L32.0365 35.7073C31.0834 36.4222 30.8685 37.7659 31.5522 38.7425C35.685 44.4925 40.7235 49.531 46.4736 53.66ZM30.3486 75.262C30.9072 75.2815 31.3486 75.7386 31.3486 76.2972C31.3486 76.8559 30.9072 77.3128 30.3486 77.3324H7.57163C7.01304 77.3129 6.57163 76.8559 6.57163 76.2972C6.57163 75.7386 7.01304 75.2816 7.57163 75.262H30.3486ZM30.3486 70.6409C30.9189 70.6409 31.3838 71.1058 31.3838 71.6761C31.3838 72.2464 30.919 72.7113 30.3486 72.7113H7.57163C7.00132 72.7113 6.53643 72.2465 6.53643 71.6761C6.53643 71.1058 7.00127 70.6409 7.57163 70.6409H30.3486ZM30.3486 66.0276C30.626 66.0159 30.8955 66.1214 31.0986 66.3167C31.2978 66.512 31.4111 66.7776 31.4111 67.0589C31.4111 67.3362 31.2978 67.6057 31.0986 67.7971C30.8955 67.9925 30.626 68.0979 30.3486 68.0901H7.57163C7.01694 68.0706 6.57554 67.6136 6.57554 67.0589C6.57554 66.5003 7.01695 66.0433 7.57163 66.0277L30.3486 66.0276Z" fill="black" />
</svg>
