<svg width="40" height="40" viewBox="0 0 40 40" fill="none" xmlns="http://www.w3.org/2000/svg">
	<path d="M1.61526 1.61526C2.7868 0.443727 4.68633 0.443677 5.85791 1.61526L20 15.7574L34.1422 1.61526C35.3137 0.443687 37.2132 0.443667 38.3848 1.61526C39.5564 2.7868 39.5564 4.68629 38.3848 5.85787L24.2427 20L38.3848 34.1421C39.5564 35.3137 39.5564 37.2132 38.3848 38.3848C37.2132 39.5564 35.3137 39.5563 34.1422 38.3848L20 24.2426L5.85791 38.3848C4.68634 39.5563 2.78681 39.5563 1.61527 38.3848C0.443666 37.2132 0.443686 35.3137 1.61527 34.1421L15.7574 20L1.61527 5.85787C0.443696 4.6863 0.443656 2.78687 1.61526 1.61526Z" fill="white" />
</svg>
