<svg width="380" height="423" viewBox="0 0 380 423" fill="none" xmlns="http://www.w3.org/2000/svg">
	<path d="M46.7999 0.399984C63.0399 0.380944 79.2799 0.367024 95.5199 0.358544C103.064 0.354488 110.64 0.348944 118.16 0.339664C147.28 0.304464 176.48 0.277264 205.36 0.681264C206.992 0.702944 208.624 0.721904 210.256 0.740144C213.224 0.775424 216.192 0.820944 219.136 0.870544C220 0.879664 220.864 0.888704 221.752 0.898064C222.936 0.921664 222.936 0.921664 224.144 0.945744C224.823 0.956224 225.504 0.966784 226.2 0.977584C228.4 1.23038 230.104 1.93758 232.128 2.80158C234.192 3.22158 236.248 3.60158 238.328 3.95358C242.512 4.69438 246.488 5.54558 250.488 7.00958C252.304 7.66318 254.128 8.18558 255.984 8.70558C266.624 11.8656 276.384 17.0256 285.744 22.7856C286.435 23.1952 287.128 23.6016 287.84 24.0256C294.088 27.8176 299.52 32.3456 304.96 37.1456C305.382 37.5176 305.808 37.8896 306.24 38.2736C313.808 44.9616 320.72 52.1136 326.56 60.3536L328.288 62.7856C338.528 77.3456 338.528 77.3456 338.528 80.3856C339.056 80.6496 339.584 80.9136 340.128 81.1856C341.648 84.0256 342.856 87.0256 344.128 89.9856C344.628 91.1216 344.628 91.1216 345.136 92.2816C349.264 101.882 352.24 111.402 354.336 121.642L354.847 124.106C356.847 134.346 357.095 144.666 357.087 155.066C357.087 155.874 357.087 155.874 357.086 156.706C357.065 168.466 356.158 179.426 352.934 190.786C352.636 191.922 352.636 191.922 352.331 193.074C347.099 212.914 337.771 230.114 325.211 246.194C324.275 247.394 323.355 248.602 322.435 249.81C319.987 253.026 317.491 255.962 314.547 258.77C313.659 259.714 313.659 259.714 312.747 260.674C310.331 262.986 307.763 264.97 305.091 266.978C303.315 268.346 303.315 268.346 301.755 269.986C300.091 271.634 298.395 272.882 296.443 274.178L294.563 275.442C292.947 276.378 292.947 276.378 291.347 276.378L290.547 278.778C288.859 279.89 287.219 280.874 285.443 281.826L283.931 282.666C282.403 283.506 280.875 284.346 279.347 285.178L276.643 286.666C274.611 287.778 272.579 288.882 270.547 289.978C271.867 293.114 273.987 295.49 276.195 298.058C276.994 298.986 277.795 299.922 278.587 300.85C278.985 301.314 279.383 301.778 279.795 302.258C284.331 307.586 288.675 313.058 292.995 318.578C294.547 320.482 294.547 320.482 296.483 322.354C298.595 324.466 300.491 326.658 302.387 328.954C303.019 329.716 303.651 330.482 304.299 331.266C305.731 333.21 305.731 333.21 305.731 334.81C306.523 335.074 307.315 335.338 308.131 335.61C309.403 336.978 310.611 338.402 311.779 339.858L313.683 342.202C315.331 344.41 315.331 344.41 316.203 346.242C316.885 347.898 316.885 347.898 319.331 348.41C320.771 350.01 320.771 350.01 322.331 352.058C324.875 355.346 327.523 358.474 330.331 361.498C331.331 362.77 331.331 362.77 331.331 364.37C332.123 364.634 332.915 364.898 333.731 365.17C333.998 366.234 334.265 367.306 334.531 368.37C335.323 368.634 336.115 368.898 336.931 369.17C337.931 370.338 337.931 370.338 338.979 371.874C341.019 374.706 343.211 377.266 345.579 379.826C350.179 384.818 354.459 390.066 358.699 395.346C359.25 396.042 359.803 396.738 360.371 397.458C360.854 398.074 361.339 398.69 361.835 399.33C363.379 401.226 363.379 401.226 365.283 403.074C367.595 405.386 369.715 407.81 371.827 410.314C372.202 410.751 372.577 411.186 372.963 411.642C379.379 419.226 379.379 419.226 379.379 421.962C366.419 422.074 353.459 422.158 340.579 422.21C334.571 422.235 328.579 422.269 322.579 422.324C317.339 422.372 312.099 422.403 306.899 422.414C304.123 422.42 301.355 422.434 298.579 422.469C295.483 422.508 292.379 422.509 289.299 422.507C287.923 422.533 287.923 422.533 286.523 422.559C281.467 422.52 278.523 422.034 274.923 418.367C273.667 416.895 272.451 415.455 271.347 413.863C269.707 411.511 267.931 409.583 265.899 407.559C264.731 406.175 263.587 404.767 262.451 403.359C259.747 400.015 256.979 396.775 254.051 393.599C253.083 392.351 253.083 392.351 253.083 390.751C252.63 390.584 252.179 390.417 251.707 390.245C249.203 388.749 247.971 386.821 246.283 384.453C244.171 381.509 242.099 378.861 239.483 376.373C235.779 372.333 232.371 368.053 229.003 363.813C227.763 362.309 226.515 360.941 225.107 359.597C224.579 359.069 224.051 358.541 223.507 357.997V356.397H221.907C220.859 355.221 219.867 353.997 218.907 352.749C216.899 350.165 214.875 347.645 212.707 345.197C210.707 342.797 210.707 342.797 210.707 341.197C209.915 340.933 209.123 340.669 208.307 340.397C207.774 339.061 207.243 337.733 206.707 336.397C205.915 336.133 205.123 335.869 204.307 335.597C203.227 334.005 202.163 332.405 201.107 330.797C199.795 329.445 198.459 328.117 197.107 326.797C196.211 325.821 195.331 324.837 194.459 323.845C194.05 323.38 193.643 322.917 193.219 322.437C192.307 321.197 192.307 321.197 192.307 319.597C191.515 319.333 190.723 319.069 189.907 318.797C189.374 317.461 188.843 316.133 188.307 314.797C187.515 314.533 186.723 314.269 185.907 313.997C184.603 312.597 183.363 311.133 182.155 309.645C181.509 308.854 180.859 308.061 180.195 307.245C178.707 305.189 178.707 305.189 178.707 303.589H116.307C115.395 299.925 115.999 299.085 117.715 295.901C118.827 293.757 119.739 291.573 120.659 289.333C121.915 286.269 123.219 283.237 124.611 280.213C126.363 276.405 127.971 272.541 129.563 268.693C131.475 264.021 133.419 259.413 135.515 254.773C135.835 254.06 136.154 253.349 136.483 252.613C138.235 248.717 140.035 244.853 141.995 241.093C142.859 239.301 143.579 237.461 144.307 235.613C145.395 235.606 145.395 235.606 146.507 235.599C153.459 235.552 160.427 235.494 167.387 235.424C170.955 235.389 174.531 235.357 178.107 235.335C213.147 235.575 213.147 235.575 245.947 224.375C246.599 224.036 247.251 223.697 247.923 223.343C251.227 221.591 253.811 219.959 256.323 217.175C257.299 216.319 258.283 215.471 259.275 214.623C274.555 201.263 285.595 183.423 287.515 162.783C287.692 159.367 287.75 155.951 287.765 152.543C287.772 151.287 287.772 151.287 287.778 149.999C287.73 144.743 287.114 139.919 285.914 134.799L285.345 131.967C284.241 126.847 282.881 122.527 280.313 117.967C279.845 116.967 279.377 115.967 278.913 114.967C275.249 107.703 270.513 101.367 264.833 95.5273C263.481 93.9593 263.481 93.9593 263.481 92.3593C263.049 92.1761 262.617 91.9921 262.169 91.8033C259.737 90.4593 257.761 88.6833 255.681 86.8593C252.073 83.7793 248.633 81.4193 244.321 79.5633C243.305 79.0337 242.289 78.4993 241.273 77.9633C227.993 71.3633 214.393 70.7073 199.833 70.4833C198.721 70.4648 197.61 70.4461 196.498 70.4272C194.178 70.3887 191.858 70.3528 189.538 70.3184C187.194 70.2835 184.858 70.2447 182.514 70.2016C169.234 69.96 156.033 69.868 142.753 70.764C142.367 71.916 141.981 73.076 141.593 74.228C141.271 75.196 141.271 75.196 140.942 76.18C138.182 84.5 136.006 93.06 133.734 101.54C127.51 124.74 127.51 124.74 124.854 133.38C123.414 138.076 122.038 142.74 120.806 147.54C120.412 149.052 120.412 149.052 120.009 150.588C119.577 153.02 119.677 154.052 120.357 156.34C120.902 156.336 121.445 156.333 122.013 156.329C127.685 156.294 133.373 156.27 139.053 156.252C141.173 156.244 143.285 156.233 145.405 156.219C148.445 156.2 151.485 156.191 154.525 156.184C155.477 156.176 156.429 156.167 157.405 156.159C158.285 156.159 159.165 156.158 160.077 156.158C160.853 156.155 161.629 156.151 162.429 156.148C164.389 156.34 164.389 156.34 166.789 157.94L165.189 158.74C164.505 160.18 164.505 160.18 163.893 161.988C161.781 167.5 159.077 172.708 156.397 177.988C154.677 181.364 152.989 184.764 151.309 188.148C148.845 193.124 146.285 198.068 143.693 202.948C139.197 211.428 134.733 219.988 130.893 228.788C128.373 234.324 125.533 239.748 122.813 245.188C119.829 251.1 116.909 257.028 114.093 263.028C111.517 268.58 108.709 273.988 105.853 279.428C103.165 284.484 100.701 289.668 98.2847 294.788C96.3007 299.02 94.1887 303.188 91.9727 307.268C89.2767 312.284 86.7807 317.348 84.3807 322.548C80.3247 331.268 75.9807 339.828 71.4207 348.228C69.7247 351.388 68.1887 354.58 66.7807 357.908C65.3407 361.196 63.6687 364.388 62.0447 367.588C61.3775 368.924 60.7087 370.252 60.0447 371.588C59.0687 373.54 58.0927 375.5 57.1007 377.444C55.1247 381.356 53.2367 385.308 51.3967 389.284C43.2367 406.964 43.2367 406.964 38.1167 414.724C37.1087 416.612 36.7327 418.308 36.4127 420.412H35.6127C35.4567 418.98 35.3079 417.548 35.1631 416.108C35.0799 415.309 34.9959 414.508 34.9103 413.692C34.8135 411.612 34.8135 411.612 35.6135 410.012C35.7087 408.82 35.7567 407.628 35.7823 406.428C35.8033 405.66 35.8243 404.892 35.846 404.1C35.8794 402.812 35.8794 402.812 35.9136 401.508C36.164 393.764 36.5976 386.068 37.1936 378.308C37.2461 377.624 37.2984 376.94 37.3528 376.236C37.5072 374.236 37.6632 372.236 37.8192 370.228C38.5776 360.468 39.2752 350.708 39.9232 340.948C39.9732 340.196 40.0232 339.444 40.0744 338.668C40.9544 325.388 41.7864 312.108 42.5944 298.828C42.6525 297.876 42.7104 296.916 42.7704 295.932C43.308 287.052 43.8424 278.252 44.3784 269.372C45.7304 246.972 47.1384 224.652 48.8344 202.252C49.3064 196.02 49.7384 189.772 50.1704 183.532C50.2396 182.532 50.3088 181.54 50.38 180.516C50.952 172.804 50.952 172.804 50.82 165.076C49.98 164.052 49.98 164.052 48.068 164.18C46.772 164.182 46.772 164.182 45.444 164.185C43.98 164.185 43.98 164.185 42.484 164.185C41.412 164.189 40.332 164.193 39.26 164.198C38.164 164.199 37.076 164.2 35.98 164.201C33.1 164.204 30.22 164.212 27.34 164.221C24.404 164.229 21.46 164.233 18.54 164.237C12.772 164.245 7.01997 164.259 1.25997 164.276C0.243972 161.228 0.867972 158.932 1.50957 155.876C1.61437 155.334 1.71917 154.796 1.82637 154.236C2.37597 151.54 2.91437 149.796 4.45837 147.476C4.99517 145.684 5.48237 143.884 5.93037 142.068C6.06477 141.538 6.19837 141.012 6.33677 140.46C6.76477 138.764 7.18477 137.068 7.60877 135.372C8.16237 133.156 8.72077 130.932 9.28077 128.716C9.41597 128.181 9.55117 127.644 9.68957 127.1C10.5696 123.66 11.5936 120.308 12.7616 116.94C13.4944 114.748 13.9776 112.516 14.4576 110.26C15.2416 106.748 16.1616 103.404 17.3536 100.02C18.5296 96.4277 19.4896 92.7797 20.4736 89.1397C21.4416 85.6037 22.4816 82.0997 23.5776 78.5797C25.6016 72.0517 27.2496 65.4597 28.9136 58.8197C30.2816 53.3957 31.6496 48.0197 33.4896 42.7397C34.5456 39.6437 35.4096 36.4837 36.3056 33.2997C36.5104 32.5837 36.7144 31.8677 36.9256 31.1317C38.0296 27.2517 39.0936 23.3717 40.1176 19.4517C40.428 18.2837 40.428 18.2837 40.7448 17.0837C41.1384 15.5877 41.5264 14.0997 41.9048 12.6037C42.0864 11.9157 42.268 11.2277 42.4552 10.5237C42.6088 9.92686 42.7624 9.33166 42.9216 8.71566C43.5904 6.80366 44.3856 5.10766 45.2976 3.30766C45.7336 2.44366 45.7336 2.44366 46.1776 1.56366C46.5112 0.906857 46.5112 0.906857 46.852 0.235657L46.7999 0.399984Z" fill="#FCD859" />
</svg>
