<svg width="82" height="82" viewBox="0 0 82 82" fill="none" xmlns="http://www.w3.org/2000/svg">
	<path d="M25.3001 7.63496C27.0581 9.39196 28.8221 11.144 30.5721 12.909C33.6581 16.022 33.6641 19.653 30.5901 22.742C28.3851 24.958 26.1931 27.187 23.9451 29.358C23.3511 29.931 23.3041 30.403 23.6051 31.125C25.0811 34.67 27.2151 37.809 29.6161 40.761C34.4421 46.694 39.9001 51.96 46.4091 56.046C47.8031 56.921 49.3451 57.558 50.7971 58.346C51.5441 58.751 52.0561 58.622 52.6541 58.004C54.8531 55.731 57.1051 53.508 59.3521 51.281C62.2951 48.365 65.9891 48.359 68.9451 51.287C72.5571 54.865 76.1531 58.46 79.7341 62.068C82.7381 65.094 82.7141 68.792 79.6931 71.84C77.6521 73.9 75.4951 75.855 73.5651 78.013C70.7561 81.154 67.2321 82.171 63.2011 81.949C57.3421 81.627 51.9371 79.683 46.7321 77.153C35.1621 71.53 25.2711 63.737 16.9971 53.888C10.8791 46.606 5.82311 38.681 2.49811 29.73C0.890114 25.401 -0.259886 20.967 0.0901139 16.277C0.306114 13.383 1.39311 10.921 3.52611 8.89096C5.81611 6.70996 7.99811 4.41596 10.2541 2.19796C13.2081 -0.707036 16.9031 -0.701036 19.8641 2.20596C21.6921 3.99996 23.4891 5.82396 25.3001 7.63496Z" fill="white" />
</svg>
