<svg width="90" height="112" viewBox="0 0 90 112" fill="none" xmlns="http://www.w3.org/2000/svg">
	<path d="M5.67995 50C6.54967 51.3725 6.84088 53.0334 6.48995 54.62L5.20995 60.5C4.66207 62.9766 5.06136 65.5686 6.32919 67.7656C7.59701 69.9625 9.64148 71.6052 12.06 72.37L12.74 72.59L1.48995 94C1.04166 94.8379 0.848298 95.7886 0.933695 96.735C1.01909 97.6815 1.37951 98.5822 1.97055 99.3263C2.56159 100.07 3.35742 100.625 4.25996 100.923C5.16251 101.22 6.13234 101.247 7.04995 101L16.16 98.6C16.3637 98.5551 16.5768 98.585 16.7603 98.6841C16.9439 98.7832 17.0857 98.945 17.16 99.14L20.4 108C20.7105 108.894 21.2789 109.676 22.0336 110.247C22.7882 110.819 23.6951 111.154 24.64 111.21H25C25.8869 111.216 26.7583 110.977 27.5174 110.518C28.2764 110.059 28.8934 109.398 29.3 108.61L41.44 85.46L42.66 84.96C44.1583 84.3399 45.8416 84.3399 47.34 84.96L48.56 85.46L60.71 108.6C61.1165 109.388 61.7335 110.049 62.4925 110.508C63.2516 110.967 64.123 111.206 65.01 111.2H65.36C66.3036 111.144 67.2097 110.811 67.9642 110.242C68.7187 109.672 69.2878 108.892 69.6 108L72.8 99.13C72.8724 98.9337 73.014 98.7706 73.198 98.6712C73.3821 98.5719 73.5961 98.543 73.8 98.59L83 101C83.9176 101.249 84.8883 101.224 85.7917 100.927C86.6951 100.63 87.4915 100.074 88.0823 99.3293C88.6731 98.5842 89.0323 97.6821 89.1154 96.7348C89.1985 95.7875 89.0019 94.8366 88.55 94L77.26 72.59L77.94 72.37C80.3563 71.6053 82.3992 69.9642 83.6668 67.7695C84.9344 65.5747 85.3351 62.9852 84.79 60.51L83.51 54.62C83.159 53.0334 83.4502 51.3725 84.32 50L87.54 44.9C88.9018 42.761 89.4128 40.1895 88.9723 37.6923C88.5317 35.1952 87.1715 32.9538 85.16 31.41L80.39 27.72C79.1047 26.7285 78.2636 25.2691 78.05 23.66L77.24 17.66C76.9074 15.1449 75.645 12.8456 73.7016 11.215C71.7582 9.58434 69.2745 8.7406 66.74 8.84997L60.74 9.08997C59.1149 9.15756 57.5292 8.57867 56.33 7.47997L51.87 3.47997C50.0001 1.76674 47.556 0.816406 45.02 0.816406C42.4839 0.816406 40.0399 1.76674 38.17 3.47997L33.71 7.47997C32.5084 8.57489 30.9243 9.1532 29.3 9.08997L23.3 8.84997C20.7659 8.74291 18.2835 9.58748 16.3406 11.2177C14.3977 12.8479 13.1347 15.1459 12.8 17.66L11.99 23.66C11.7763 25.2691 10.9352 26.7285 9.64995 27.72L4.87995 31.41C2.86192 32.948 1.49385 35.1868 1.04583 37.6842C0.597805 40.1817 1.10238 42.7564 2.45995 44.9L5.67995 50ZM25.75 106.74C25.673 106.89 25.553 107.015 25.4051 107.097C25.2573 107.179 25.0884 107.215 24.92 107.2C24.7502 107.194 24.5863 107.136 24.4503 107.034C24.3144 106.933 24.2131 106.791 24.16 106.63L21 97.76C20.5935 96.6107 19.7683 95.6572 18.6894 95.0899C17.6104 94.5226 16.3571 94.3834 15.18 94.7L5.99995 97.11C5.83718 97.1565 5.66415 97.1527 5.50355 97.0992C5.34295 97.0456 5.20227 96.9448 5.09995 96.81C4.97626 96.6768 4.9003 96.5064 4.88401 96.3254C4.86772 96.1444 4.91202 95.9631 5.00995 95.81L16.58 73.81L17.77 74.19C19.3173 74.6786 20.6103 75.7561 21.37 77.19L24.17 82.53C25.2337 84.5647 26.9564 86.1781 29.0564 87.1064C31.1564 88.0347 33.5092 88.2228 35.73 87.64L25.75 106.74ZM85 95.86C85.096 96.0131 85.14 96.1931 85.1256 96.3732C85.1112 96.5534 85.0391 96.7241 84.92 96.86C84.8151 96.9946 84.6727 97.095 84.5106 97.1484C84.3486 97.2019 84.1743 97.2059 84.01 97.16L74.9 94.75C73.7182 94.4078 72.4504 94.5286 71.3544 95.0877C70.2585 95.6468 69.4166 96.6023 69 97.76L65.8 106.63C65.743 106.789 65.6408 106.928 65.506 107.03C65.3712 107.132 65.2096 107.193 65.0409 107.205C64.8722 107.216 64.7038 107.179 64.5562 107.096C64.4087 107.014 64.2883 106.89 64.21 106.74L54.21 87.67C55.0478 87.8965 55.912 88.0108 56.78 88.01C58.6347 88.0096 60.4539 87.5014 62.0404 86.5407C63.6269 85.58 64.9201 84.2033 65.78 82.56L68.58 77.22C69.3396 75.7861 70.6326 74.7086 72.18 74.22L73.37 73.84L85 95.86ZM7.28996 34.57L12.05 30.88C14.1699 29.2518 15.5579 26.8497 15.91 24.2L16.73 18.2C16.9309 16.6726 17.696 15.2756 18.8747 14.2838C20.0535 13.2919 21.5607 12.7769 23.1 12.84L29.1 13.08C31.7738 13.1946 34.3842 12.2453 36.36 10.44L40.82 6.43997C41.9547 5.39781 43.4393 4.81953 44.98 4.81953C46.5206 4.81953 48.0052 5.39781 49.14 6.43997L53.6 10.44C55.5757 12.2453 58.1861 13.1946 60.86 13.08L66.86 12.84C68.4003 12.7722 69.91 13.2856 71.0898 14.2783C72.2695 15.271 73.0334 16.6707 73.23 18.2L74.05 24.2C74.2354 25.5189 74.6799 26.7881 75.3578 27.9345C76.0357 29.0809 76.9336 30.082 78 30.88L82.76 34.57C83.982 35.5088 84.8085 36.871 85.0769 38.3885C85.3452 39.906 85.036 41.469 84.21 42.77L80.99 47.86C79.5564 50.1204 79.0747 52.8559 79.65 55.47L80.93 61.35C81.264 62.8543 81.0221 64.4292 80.252 65.7639C79.4819 67.0987 78.2395 68.0963 76.77 68.56L71 70.4C68.4425 71.2172 66.3135 73.0153 65.08 75.4L62.28 80.74C61.5674 82.1052 60.3693 83.1539 58.9218 83.6796C57.4744 84.2053 55.8825 84.1697 54.46 83.58L48.88 81.3C46.4064 80.2864 43.6335 80.2864 41.16 81.3L35.58 83.58C34.1574 84.1697 32.5655 84.2053 31.1181 83.6796C29.6706 83.1539 28.4725 82.1052 27.76 80.74L24.96 75.4C23.7238 73.0174 21.5958 71.2201 19.04 70.4L13.3 68.56C11.8304 68.0963 10.588 67.0987 9.81787 65.7639C9.04776 64.4292 8.80588 62.8543 9.13995 61.35L10.42 55.47C10.9952 52.8559 10.5135 50.1204 9.07995 47.86L5.85995 42.77C5.0318 41.4713 4.71932 39.9099 4.98393 38.3925C5.24854 36.8752 6.0711 35.5117 7.28996 34.57ZM45 72.54C50.5635 72.54 56.0022 70.8902 60.6281 67.7992C65.2541 64.7082 68.8596 60.3149 70.9887 55.1749C73.1178 50.0348 73.6748 44.3788 72.5894 38.9221C71.504 33.4654 68.8249 28.4531 64.8909 24.5191C60.9568 20.585 55.9445 17.9059 50.4878 16.8205C45.0312 15.7351 39.3752 16.2921 34.2351 18.4212C29.095 20.5503 24.7017 24.1558 21.6107 28.7818C18.5197 33.4077 16.87 38.8464 16.87 44.41C16.8779 51.8681 19.8441 59.0184 25.1178 64.2921C30.3915 69.5658 37.5419 72.532 45 72.54ZM45 20.28C49.7724 20.28 54.4377 21.6952 58.4059 24.3466C62.374 26.998 65.4668 30.7666 67.2932 35.1758C69.1195 39.585 69.5974 44.4367 68.6663 49.1175C67.7352 53.7983 65.4371 58.0978 62.0624 61.4725C58.6878 64.8471 54.3882 67.1453 49.7075 68.0763C45.0267 69.0074 40.175 68.5295 35.7658 66.7032C31.3566 64.8768 27.588 61.784 24.9366 57.8159C22.2852 53.8477 20.87 49.1824 20.87 44.41C20.8779 38.0127 23.4227 31.8798 27.9462 27.3563C32.4698 22.8327 38.6027 20.2879 45 20.28ZM45 64.28C48.9203 64.28 52.7526 63.118 56.0127 60.9408C59.2729 58.7636 61.8146 55.6689 63.3166 52.0478C64.8187 48.4267 65.2137 44.4416 64.4518 40.596C63.6899 36.7505 61.8052 33.217 59.036 30.4422C56.2667 27.6673 52.7371 25.7755 48.8931 25.0059C45.0491 24.2362 41.0632 24.6232 37.439 26.118C33.8149 27.6127 30.7151 30.1482 28.5313 33.4039C26.3476 36.6597 25.1779 40.4897 25.17 44.41C25.1779 49.6668 27.2697 54.706 30.9868 58.4231C34.7039 62.1403 39.7431 64.232 45 64.24V64.28ZM45 28.62C48.1325 28.62 51.1947 29.5494 53.7988 31.2906C56.4029 33.0318 58.4318 35.5065 59.6288 38.4014C60.8257 41.2963 61.1368 44.4812 60.5228 47.553C59.9087 50.6248 58.3971 53.4454 56.1792 55.6576C53.9614 57.8699 51.137 59.3744 48.0636 59.9807C44.9903 60.5869 41.8062 60.2677 38.9143 59.0635C36.0225 57.8592 33.5529 55.824 31.8183 53.2155C30.0837 50.607 29.162 47.5425 29.17 44.41C29.1752 40.2132 30.8447 36.1899 33.8123 33.2223C36.7799 30.2548 40.8032 28.5853 45 28.58V28.62ZM41.48 51.62L35.64 46.22L38.36 43.28L42.7 47.28L51.5 37.33L54.5 39.99L44.34 51.47C44.163 51.6693 43.948 51.8313 43.7076 51.9463C43.4672 52.0614 43.2062 52.1272 42.94 52.14H42.84C42.336 52.1409 41.8503 51.9517 41.48 51.61V51.62Z" fill="#285EB2" />
</svg>
