<svg width="90" height="96" viewBox="0 0 90 96" fill="none" xmlns="http://www.w3.org/2000/svg">
	<path d="M62.7621 75.4191C60.7021 74.1561 58.6001 72.9081 56.4801 71.6741C56.4781 71.6731 56.4761 71.6711 56.4731 71.6701C52.7561 69.5061 48.9851 67.3851 45.2811 65.3081V63.2521C45.4531 63.0431 45.6231 62.8311 45.7911 62.6141C47.7251 60.0961 49.1791 57.1841 50.0961 54.0591C53.3501 52.8891 55.8011 49.4971 55.8011 45.9951C55.8011 44.1861 55.1381 42.5891 53.9331 41.4981C53.3821 40.9991 52.7411 40.6301 52.0421 40.3961C53.3271 37.2231 54.0491 34.0211 54.0491 31.1621C54.0491 20.4031 44.8411 11.6501 33.5221 11.6501C22.2031 11.6501 12.9951 20.4031 12.9951 31.1621C12.9951 34.0201 13.7181 37.2221 15.0041 40.3951C14.2851 40.6351 13.6291 41.0211 13.0701 41.5391C11.8951 42.6281 11.2481 44.2101 11.2481 45.9941C11.2481 49.4951 13.6991 52.8871 16.9531 54.0571C17.8701 57.1821 19.3231 60.0941 21.2561 62.6121C21.4341 62.8441 21.6161 63.0701 21.8001 63.2921V65.2851C15.9461 68.5721 9.91109 71.9661 4.28909 75.4161C2.11709 76.7451 0.871094 78.9671 0.871094 81.5141V93.4751C0.871094 94.1911 1.45209 94.7721 2.16809 94.7721C2.88409 94.7721 3.46509 94.1921 3.46509 93.4751V81.5161C3.46509 79.8701 4.23909 78.4901 5.64509 77.6301C7.03909 76.7751 8.46009 75.9221 9.89809 75.0731V93.4771C9.89809 94.1931 10.4791 94.7741 11.1951 94.7741C11.9111 94.7741 12.4921 94.1941 12.4921 93.4771V73.5571C14.2411 72.5431 16.0071 71.5341 17.7731 70.5341V85.1521C17.7731 85.8681 18.3531 86.4491 19.0701 86.4491H47.9841C48.7001 86.4491 49.2811 85.8691 49.2811 85.1521V70.5351C51.0441 71.5331 52.8091 72.5401 54.5621 73.5571V93.4781C54.5621 94.1941 55.1421 94.7751 55.8591 94.7751C56.5761 94.7751 57.1561 94.1951 57.1561 93.4781V75.0741C58.5891 75.9201 60.0111 76.7721 61.4101 77.6311C62.8151 78.4901 63.5891 79.8701 63.5891 81.5161V93.4771C63.5891 94.1931 64.1691 94.7741 64.8861 94.7741C65.6031 94.7741 66.1831 94.1941 66.1831 93.4771V81.5161C66.1791 78.9701 64.9331 76.7481 62.7621 75.4191ZM24.3941 66.0331C24.3941 66.0301 24.3941 66.0281 24.3941 66.0251V65.9351C27.2091 68.3251 30.3921 69.6421 33.5231 69.6421C36.6671 69.6421 39.8641 68.3151 42.6881 65.9051V66.0471C42.6881 66.0491 42.6881 66.0521 42.6881 66.0541V66.0681C42.6881 71.1131 38.5831 75.2181 33.5381 75.2181C28.4961 75.2181 24.3941 71.1131 24.3941 66.0681V66.0331ZM16.6371 37.2581C21.2191 34.2231 27.1741 32.5601 33.5221 32.5601C39.8731 32.5601 45.8281 34.2231 50.4101 37.2561C49.2881 40.8021 47.3281 44.4851 44.8371 47.5791C41.4771 45.4641 37.5901 44.3521 33.5221 44.3521C29.4571 44.3521 25.5721 45.4641 22.2121 47.5791C19.7221 44.4841 17.7601 40.8021 16.6371 37.2581ZM53.2081 45.9961C53.2081 47.7301 52.2491 49.5141 50.8681 50.6581C51.1111 49.1601 51.2361 47.6301 51.2361 46.0861C51.2361 45.2561 51.2251 44.0741 51.1411 42.8281C51.5341 42.9471 51.8881 43.1451 52.1931 43.4211C52.8471 44.0141 53.2081 44.9291 53.2081 45.9961ZM33.5231 14.2441C43.4121 14.2441 51.4571 21.8341 51.4571 31.1631C51.4571 32.2541 51.3311 33.4151 51.0941 34.6161C46.2021 31.6081 40.0421 29.9671 33.5241 29.9671C27.0071 29.9671 20.8471 31.6091 15.9551 34.6191C15.7161 33.4171 15.5901 32.2551 15.5901 31.1641C15.5891 21.8341 23.6341 14.2441 33.5231 14.2441ZM13.8431 45.9961C13.8431 44.9421 14.1951 44.0351 14.8351 43.4421C15.1301 43.1691 15.4741 42.9691 15.8561 42.8451C15.8151 44.0671 15.8151 45.1511 15.8161 45.9161V46.0851C15.8161 47.6291 15.9411 49.1591 16.1841 50.6571C14.8011 49.5131 13.8431 47.7301 13.8431 45.9961ZM18.4221 46.8041C19.2091 47.9731 20.0681 49.0981 20.9881 50.1561C21.4261 50.6591 22.1751 50.7481 22.7181 50.3611C25.8541 48.1271 29.5901 46.9461 33.5221 46.9461C37.4571 46.9461 41.1951 48.1271 44.3311 50.3611C44.5581 50.5231 44.8211 50.6011 45.0821 50.6011C45.4461 50.6011 45.8061 50.4491 46.0611 50.1561C46.9821 49.0991 47.8401 47.9731 48.6271 46.8031C48.4831 52.0631 46.7611 57.0931 43.7331 61.0351C40.7981 64.8571 37.0761 67.0481 33.5211 67.0481C29.9671 67.0481 26.2461 64.8561 23.3121 61.0351C20.2881 57.0941 18.5671 52.0641 18.4221 46.8041ZM46.6861 83.8551H20.3651V69.0701C20.9081 68.7641 21.4501 68.4601 21.9911 68.1561C22.9791 73.6381 27.7791 77.8111 33.5391 77.8111C39.2951 77.8111 44.0931 73.6471 45.0891 68.1741C45.6201 68.4721 46.1531 68.7721 46.6861 69.0721V83.8551ZM82.0391 34.7521C81.6371 34.5481 81.1581 34.5671 80.7731 34.8031C80.3891 35.0391 80.1541 35.4571 80.1541 35.9081V41.1841C80.1541 43.0971 78.5981 44.6531 76.6851 44.6531C74.7721 44.6531 73.2161 43.0971 73.2161 41.1841V35.9081C73.2161 35.4571 72.9821 35.0391 72.5971 34.8031C72.2121 34.5671 71.7331 34.5481 71.3311 34.7521C67.3351 36.7841 64.8521 40.8291 64.8521 45.3071C64.8521 49.0391 66.5991 52.5191 69.5601 54.7501V88.3751C69.5601 92.3041 72.7561 95.5001 76.6851 95.5001C80.6161 95.5001 83.8151 92.3041 83.8151 88.3751V54.7501C86.7721 52.5171 88.5171 49.0381 88.5171 45.3071C88.5181 40.8281 86.0351 36.7841 82.0391 34.7521ZM81.8001 53.0021C81.4391 53.2421 81.2221 53.6471 81.2221 54.0811V88.3761C81.2221 90.8751 79.1871 92.9081 76.6851 92.9081C74.1861 92.9081 72.1531 90.8751 72.1531 88.3761V54.0811C72.1531 53.6471 71.9361 53.2421 71.5741 53.0011C68.9891 51.2821 67.4451 48.4061 67.4451 45.3071C67.4451 42.5811 68.6231 40.0601 70.6221 38.3291V41.1831C70.6221 44.5261 73.3411 47.2451 76.6841 47.2451C80.0271 47.2451 82.7461 44.5261 82.7461 41.1831V38.3291C84.7451 40.0601 85.9231 42.5811 85.9231 45.3071C85.9251 48.4051 84.3831 51.2811 81.8001 53.0021ZM88.4491 20.1861L85.7761 18.0621C85.8001 17.7111 85.8101 17.3591 85.8051 17.0101L88.5851 15.0241C89.0661 14.6811 89.2531 14.0561 89.0421 13.5041L87.2431 8.81811C87.0321 8.26711 86.4751 7.93011 85.8891 7.99411L82.4861 8.37411C82.2541 8.10911 82.0141 7.85511 81.7671 7.61511L82.3301 4.24211C82.4271 3.65911 82.1181 3.08411 81.5781 2.84411L76.9861 0.803108C76.4461 0.563108 75.8121 0.718108 75.4451 1.18011L73.3181 3.85211C72.9661 3.82911 72.6151 3.82011 72.2681 3.82411L70.2821 1.04411C69.9391 0.563108 69.3141 0.375108 68.7621 0.587108L64.0751 2.38611C63.5241 2.59711 63.1851 3.15411 63.2511 3.74111L63.6311 7.13911C63.3681 7.36911 63.1151 7.61011 62.8731 7.85811L59.4971 7.29911C58.9151 7.20311 58.3411 7.51211 58.1011 8.05111L56.0601 12.6381C55.8201 13.1771 55.9751 13.8111 56.4361 14.1791L59.1071 16.3091C59.0841 16.6561 59.0761 17.0071 59.0811 17.3581L56.3001 19.3491C55.8201 19.6931 55.6331 20.3171 55.8441 20.8681L57.6431 25.5551C57.8551 26.1071 58.4131 26.4441 58.9991 26.3791L62.3941 25.9951C62.6221 26.2551 62.8621 26.5091 63.1141 26.7551L62.5551 30.1281C62.4591 30.7101 62.7671 31.2841 63.3061 31.5241L67.8931 33.5701C68.4331 33.8111 69.0671 33.6561 69.4361 33.1931L71.5661 30.5181C71.9101 30.5411 72.2591 30.5501 72.6111 30.5461L74.5991 33.3291C74.8481 33.6771 75.2451 33.8721 75.6541 33.8721C75.8091 33.8721 75.9661 33.8441 76.1181 33.7861L80.8101 31.9871C81.3621 31.7761 81.7011 31.2181 81.6341 30.6311L81.2501 27.2331C81.5141 27.0011 81.7681 26.7601 82.0111 26.5111L85.3811 27.0741C85.9641 27.1711 86.5391 26.8621 86.7791 26.3231L88.8251 21.7311C89.0671 21.1881 88.9121 20.5531 88.4491 20.1861ZM84.8201 24.3481L81.7491 23.8351C81.3061 23.7611 80.8551 23.9221 80.5581 24.2611C80.1171 24.7661 79.6201 25.2381 79.0811 25.6621C78.7281 25.9401 78.5441 26.3801 78.5951 26.8261L78.9451 29.9211L76.1261 31.0021L74.3161 28.4671C74.0721 28.1251 73.6781 27.9241 73.2611 27.9241C73.2341 27.9241 73.2071 27.9251 73.1791 27.9271C72.4831 27.9711 71.7991 27.9521 71.1481 27.8711C70.7001 27.8171 70.2551 27.9971 69.9741 28.3501L68.0331 30.7891L65.2781 29.5601L65.7881 26.4881C65.8611 26.0471 65.7021 25.5991 65.3661 25.3031C64.8431 24.8421 64.3731 24.3461 63.9701 23.8281C63.6931 23.4721 63.2501 23.2851 62.8011 23.3361L59.7051 23.6861L58.6251 20.8711L61.1611 19.0561C61.5271 18.7941 61.7311 18.3611 61.7001 17.9111C61.6521 17.2271 61.6691 16.5471 61.7511 15.8891C61.8061 15.4411 61.6251 14.9971 61.2731 14.7161L58.8381 12.7741L60.0641 10.0191L63.1411 10.5281C63.5841 10.6021 64.0351 10.4401 64.3301 10.1011C64.7691 9.59711 65.2641 9.12811 65.8001 8.70611C66.1531 8.42911 66.3371 7.98811 66.2871 7.54211L65.9401 4.44711L68.7551 3.36611L70.5651 5.90011C70.8271 6.26711 71.2621 6.46911 71.7101 6.44011C72.3711 6.39311 73.0561 6.41111 73.7461 6.49211C74.1921 6.54511 74.6321 6.36211 74.9121 6.01211L76.8491 3.57811L79.6071 4.80411L79.0941 7.87911C79.0201 8.32511 79.1831 8.77811 79.5251 9.07411C80.0171 9.49911 80.4851 9.99211 80.9151 10.5401C81.1921 10.8931 81.6331 11.0781 82.0781 11.0281L85.1801 10.6821L86.2601 13.4971L83.7261 15.3071C83.3591 15.5691 83.1551 16.0031 83.1861 16.4531C83.2331 17.1191 83.2141 17.8021 83.1301 18.4801C83.0741 18.9281 83.2561 19.3741 83.6101 19.6551L86.0481 21.5921L84.8201 24.3481ZM75.2891 10.8011C73.5851 10.0401 71.6871 9.98911 69.9441 10.6561C68.1991 11.3251 66.8201 12.6331 66.0611 14.3381C65.2991 16.0421 65.2481 17.9411 65.9161 19.6841C66.5851 21.4291 67.8931 22.8081 69.6001 23.5681C70.5221 23.9781 71.4851 24.1721 72.4341 24.1721C75.1121 24.1721 77.6711 22.6261 78.8281 20.0281C80.3951 16.5071 78.8071 12.3681 75.2891 10.8011ZM76.4591 18.9751C75.4741 21.1881 72.8701 22.1871 70.6541 21.2001C69.5801 20.7221 68.7581 19.8551 68.3371 18.7571C67.9171 17.6611 67.9501 16.4681 68.4291 15.3951C68.9071 14.3211 69.7741 13.4991 70.8721 13.0781C71.3821 12.8821 71.9141 12.7851 72.4441 12.7851C73.0531 12.7851 73.6601 12.9131 74.2321 13.1691L74.2341 13.1701C76.4471 14.1551 77.4451 16.7591 76.4591 18.9751ZM77.9821 67.5041V78.1971C77.9821 78.9131 77.4021 79.4941 76.6851 79.4941C75.9681 79.4941 75.3881 78.9141 75.3881 78.1971V67.5041C75.3881 66.7881 75.9681 66.2071 76.6851 66.2071C77.4021 66.2071 77.9821 66.7881 77.9821 67.5041Z" fill="#285EB2" />
</svg>
