<svg xmlns:rdf="http://www.w3.org/1999/02/22-rdf-syntax-ns#" xmlns="http://www.w3.org/2000/svg" enable-background="new 0 0 504.6 508" xml:space="preserve" height="507" viewBox="0 0 503.99999 507" width="504" version="1.1" y="0px" x="0px" xmlns:cc="http://creativecommons.org/ns#" xmlns:dc="http://purl.org/dc/elements/1.1/"><g transform="translate(0,-1)"><linearGradient id="SVGID_1_" y2="-271.43" gradientUnits="userSpaceOnUse" x2="1599.3" gradientTransform="matrix(0 -1 1 0 775.99 1752.6)" y1="-775.99" x1="1599.3"><stop stop-color="#F7F7F7" offset="0"/><stop stop-color="#EBECEC" offset=".5008"/><stop stop-color="#E6E7E8" offset="1"/></linearGradient><path fill="url(#SVGID_1_)" d="m427.4 134.2c-41.8-2.9-90-16.5-141-30.9-8.2-2.3-16.4-4.6-24.9-7-9 2.3-18 4.7-26.7 7-54.8 14.4-106.6 28.1-151.5 30.9-34.9 2.2-60.9-2.3-83.3-14.7v75.6c30.1 12.4 47.9 16.9 82.8 14.7 44.9-2.9 96.7-16.5 151.5-30.9 81.2-21.4 174.8-46.1 270.3-38.2v-21.2c-20.9 12.4-44.7 16.9-77.2 14.7z"/><linearGradient id="SVGID_2_" y2="-610.04" gradientUnits="userSpaceOnUse" x2="1632.4" gradientTransform="matrix(0 -1 1 0 775.99 1752.6)" y1="-438.97" x1="1480"><stop stop-color="#F1F2F2" offset="0"/><stop stop-color="#E6E7E8" offset="1"/></linearGradient><path fill="url(#SVGID_2_)" d="m234.3 178.9c-54.8 14.4-106.6 28.1-151.5 30.9-34.9 2.2-52.7-2.3-82.8-14.7v58.4c88.8-9.3 175.7 6.2 274.6 22.4 57.7 9.4 117.3 19.2 165.7 21.7 34.8 1.8 54-0.6 64.3-2.9v-154c-95.5-8-189.1 16.8-270.3 38.2z"/><linearGradient id="SVGID_3_" y2="-426.47" gradientUnits="userSpaceOnUse" x2="1690.7" gradientTransform="matrix(0 -1 1 0 775.99 1752.6)" y1="-294" x1="1616.3"><stop stop-color="#F1F2F2" offset="0"/><stop stop-color="#ECECED" offset="1"/></linearGradient><path fill="url(#SVGID_3_)" d="m261.6 96.3c8.4 2.3 16.7 4.7 24.9 7 51 14.4 99.2 28.1 141 30.9 32.5 2.2 56.3-2.3 77.2-14.7v-54.4c-85.3-7.1-168.5 11.8-243.1 31.2z"/><linearGradient id="SVGID_4_" y2="-271.43" gradientUnits="userSpaceOnUse" x2="1704.4" gradientTransform="matrix(0 -1 1 0 775.99 1752.6)" y1="-775.99" x1="1704.4"><stop stop-color="#F7F7F7" offset="0"/><stop stop-color="#E6E7E8" offset="1"/></linearGradient><path fill="url(#SVGID_4_)" d="m0 70.1c91.1-17.6 181.8 4 261.6 26.2 74.6-19.3 157.8-38.2 243-31.1v-65.2h-504.6v70.1z"/><linearGradient id="SVGID_5_" y2="-271.43" gradientUnits="userSpaceOnUse" x2="1440.4" gradientTransform="matrix(0 -1 1 0 775.99 1752.6)" y1="-775.99" x1="1440.4"><stop stop-color="#F1F2F2" offset="0"/><stop stop-color="#E6E7E8" offset="1"/></linearGradient><path fill="url(#SVGID_5_)" d="m440.3 297.6c-48.4-2.5-108-12.3-165.7-21.7-98.9-16.2-185.8-31.8-274.6-22.4v116.6c18.8 2.3 31.6 4.7 68.9 2.9 52-2.5 116.1-12.3 178.1-21.7 91.3-13.9 179.2-27.3 257.6-24.9v-31.7c-10.4 2.3-29.5 4.7-64.3 2.9z"/><linearGradient id="SVGID_6_" y2="-704.5" gradientUnits="userSpaceOnUse" x2="1677.9" gradientTransform="matrix(0 -1 1 0 775.99 1752.6)" y1="-570.37" x1="1602.7"><stop stop-color="#F1F2F2" offset="0"/><stop stop-color="#ECECED" offset="1"/></linearGradient><path fill="url(#SVGID_6_)" d="m83.3 134.2c44.9-2.9 96.7-16.5 151.5-30.9 8.8-2.3 17.7-4.7 26.7-7-79.7-22.2-170.4-43.8-261.5-26.2v49.4c22.4 12.4 48.5 16.9 83.3 14.7z"/><linearGradient id="SVGID_7_" y2="-762.17" gradientUnits="userSpaceOnUse" x2="1434.1" gradientTransform="matrix(0 -1 1 0 775.99 1752.6)" y1="-268.56" x1="1301.8"><stop stop-color="#F7F7F7" offset="0"/><stop stop-color="#E6E7E8" offset="1"/></linearGradient><path fill="url(#SVGID_7_)" d="m247 351.3c-62 9.4-126.1 19.2-178.1 21.7-37.3 1.8-50.1-0.6-68.9-2.9v68.3c66.1-2.5 140.4 2.5 264.7 11.5 71.7 5.2 182 13.2 239.9 11.6v-135.2c-78.4-2.4-166.3 11.1-257.6 25z"/><linearGradient id="SVGID_8_" y2="-257.53" gradientUnits="userSpaceOnUse" x2="1209.8" gradientTransform="matrix(0 -1 1 0 775.99 1752.6)" y1="-766.46" x1="1320.8"><stop stop-color="#F7F7F7" offset="0"/><stop stop-color="#E6E7E8" offset="1"/></linearGradient><path fill="url(#SVGID_8_)" d="m264.7 449.9c-124.3-9-198.6-14-264.7-11.5v69.5l504.6 0.1v-46.6c-57.9 1.6-168.2-6.4-239.9-11.5z"/></g></svg>
