<svg width="90" height="90" viewBox="0 0 90 90" fill="none" xmlns="http://www.w3.org/2000/svg">
	<path d="M10.0969 23.776L10.0349 23.661L9.92192 23.862C9.85092 23.92 8.78492 24.702 9.00692 25.093C9.28392 24.828 9.57592 24.553 9.86892 24.269C9.83992 24.225 9.81192 24.177 9.79592 24.12L10.1669 23.947L10.0969 23.776Z" fill="black" />
	<path d="M15.066 26.854L15.077 26.866C15.086 28.612 16.026 25.72 15.29 24.948C15.463 25.496 14.842 26.521 15.066 26.854Z" fill="black" />
	<path d="M15.306 24.428L15.243 24.077C15.223 24.013 15.078 23.974 14.821 23.974C14.821 23.974 14.821 23.98 14.814 23.98C14.814 24.065 15.023 25.225 15.078 25.178C15.207 25.021 15.322 24.617 15.306 24.428Z" fill="black" />
	<path d="M41.5691 18.28C41.4561 18.374 41.3311 18.519 41.2171 18.604C41.1811 18.961 41.0661 19.292 41.0301 19.634C40.8411 19.683 40.5841 19.741 40.3701 19.801C40.5461 20.217 41.0301 19.683 41.3301 19.889C41.4181 20.755 42.6501 19.497 42.9411 19.396C43.3621 20.065 43.8891 20.17 44.5091 19.728C43.6371 19.159 42.4151 19.113 41.5691 18.28Z" fill="black" />
	<path d="M69.7769 15.077C69.7769 15.077 69.7769 15.077 69.7769 15.086H69.7879L69.7769 15.077Z" fill="black" />
	<path d="M35.5531 15.344C35.5531 15.355 35.5531 15.355 35.5401 15.355C35.2791 15.672 34.9551 15.88 34.5571 15.971C34.8471 15.959 35.1121 16.023 35.3571 16.162C35.6741 16.295 36.1311 16.272 36.4331 16.13C36.4481 16.104 36.4581 15.909 35.5531 15.344Z" fill="black" />
	<path d="M36.1069 13.094C36.3729 12.929 36.9689 12.406 36.4109 12.343C36.3139 12.343 36.2279 12.383 36.1409 12.454C36.0079 12.465 35.8739 12.465 35.7349 12.465C35.0469 12.111 33.8089 12.929 35.1469 14.105L35.2429 14.276C35.3419 14.276 35.4369 14.276 35.5319 14.276C35.5529 14.268 35.5939 14.268 35.7249 14.105C35.7989 14.094 35.9039 14.094 35.9899 14.081C36.5189 13.969 36.5629 13.832 36.5869 13.76L36.6959 13.368C36.6559 13.158 36.3289 13.089 36.1069 13.094Z" fill="black" />
	<path d="M36.8442 10.337C36.8032 10.348 36.7922 10.358 36.7042 10.383C36.4482 10.348 36.1952 10.337 35.9292 10.359C35.5592 11.216 36.0092 10.106 35.2532 10.565C35.2532 10.854 35.1012 10.994 34.8042 10.994C34.8572 11.315 35.5952 11.195 35.8862 11.085C35.9992 11.253 35.6042 11.217 35.6142 11.417C36.6312 12.37 37.2572 10.331 36.8442 10.337Z" fill="black" />
	<path d="M35.3752 8.39701C34.4792 8.58801 35.7182 8.77601 35.7352 8.81501C35.7592 8.78801 34.5142 9.17901 35.2672 9.19601C35.5392 9.20701 37.0092 9.49101 37.0802 9.29001C36.7922 8.88601 36.3782 8.31201 35.3752 8.39701Z" fill="black" />
	<path d="M7.38694 26.079C7.31794 26.079 7.23794 26.079 7.15694 26.079C7.14894 26.079 7.38694 26.438 7.38694 26.079Z" fill="black" />
	<path d="M38.6239 9.004C38.3829 8.894 38.0769 8.732 37.8499 8.625L37.8389 8.637C37.7529 8.758 37.6099 8.787 37.5209 8.807C37.0809 8.894 38.8769 10.301 38.6239 9.004Z" fill="black" />
	<path d="M43.2772 7.48799C43.5742 7.48799 43.7772 7.44599 44.1482 7.42499C44.1592 7.42499 44.1732 7.42499 44.1812 7.42499C44.5692 7.36199 44.9372 7.18099 45.3432 7.16399C45.3322 7.18099 45.3322 7.21599 45.3322 7.23299C44.7812 7.31799 44.2602 7.51699 43.8042 7.80899C43.8292 7.88499 43.9092 7.97599 43.9362 8.06399C43.1872 7.69099 43.1872 7.69099 42.1862 7.79299C42.1862 8.47899 41.9642 9.53299 42.5382 9.20599C42.3162 9.42099 42.3162 9.42099 43.1632 9.65599C43.1702 9.67899 43.1812 9.69299 43.1812 9.70899C42.5662 9.65599 41.9652 9.58499 41.3562 9.46999C41.4572 9.60899 41.6142 9.68299 41.7282 9.78399C41.2642 11.187 41.1992 10.242 43.4452 10.481C43.9022 10.33 43.9022 10.33 44.3082 10.524C44.2972 10.563 44.2692 10.615 44.2612 10.657C44.2822 10.678 44.3082 10.686 44.3242 10.703C44.4992 10.679 46.3462 9.62099 46.5592 9.00299C46.2772 8.54999 46.3652 8.33599 46.8372 8.37499L47.8592 8.11799C48.3082 7.96299 49.7322 7.28399 49.8742 6.93099C49.8222 6.89299 49.8222 6.89299 49.2732 6.85199C49.7052 6.52299 50.3392 6.78299 50.7372 6.36899C50.6512 6.15099 49.5732 5.95999 49.3832 5.93199L47.4902 5.80499C47.4812 5.80499 47.4652 5.80499 47.4652 5.80499C46.5662 5.83799 45.7212 5.85299 44.8512 5.85299C44.2272 5.91299 43.6632 6.33799 42.9972 6.15399C42.3632 6.78299 41.4562 6.32999 40.7622 6.68399L41.4922 7.29699C42.1332 7.51799 42.7652 7.48799 43.2772 7.48799Z" fill="black" />
	<path d="M37.4592 7.79401C37.2262 7.92201 37.2422 8.01901 37.5042 8.06501C37.9402 8.16601 37.8392 7.69101 37.4592 7.79401Z" fill="black" />
	<path d="M42.335 20.695C42.255 20.734 43.17 20.859 43.574 20.547C43.574 20.525 43.574 20.481 43.574 20.435C43.144 20.374 42.721 20.456 42.335 20.695Z" fill="black" />
	<path d="M43.2479 11.749C43.7589 11.853 44.5689 12.249 44.9579 11.468C44.7359 10.331 40.7699 11.455 39.9229 10.722C40.1089 10.651 40.3189 10.735 40.4869 10.659C40.5649 10.415 40.1509 10.483 39.9839 10.398C39.9949 10.483 38.9369 10.059 38.8239 10.039L37.7669 9.95599C37.3609 10.101 39.9999 10.897 39.2829 11.217C39.0889 11.297 39.0889 11.297 39.0259 11.371C39.2099 12.358 42.9869 11.768 43.2479 11.749Z" fill="black" />
	<path d="M39.0718 8.28199C39.4128 8.35499 39.7598 8.29199 40.0988 8.33699C40.0988 8.33699 40.0988 8.33699 40.0988 8.35599C38.4008 9.36799 40.5028 9.54099 41.2798 9.09499C41.2798 9.05399 41.2878 8.97999 41.2878 8.93299C41.6838 7.71899 42.9338 9.03999 41.2878 7.76099C41.3048 7.71899 41.3548 7.69199 41.3548 7.63599C41.3038 7.57399 40.1858 6.94899 40.0278 6.97199C39.8978 7.01599 39.1858 7.22399 39.4628 7.42499C39.3188 7.64899 37.7778 7.97699 39.0718 8.28199Z" fill="black" />
	<path d="M40.0279 9.81203C40.7769 10.197 40.6099 9.51703 40.2159 9.56203C39.9699 9.62203 39.9159 9.74303 40.0279 9.81203Z" fill="black" />
	<path d="M38.2722 9.68402C38.9222 9.74402 39.0882 9.74402 39.1572 9.64702C39.2202 9.56302 38.2252 9.56302 38.1382 9.54102C38.1822 9.58602 38.2422 9.64002 38.2722 9.68402Z" fill="black" />
	<path d="M17.4089 30.538C18.3049 31.711 18.4479 29.184 16.4719 29.184C16.4719 29.184 16.4919 29.193 16.5029 29.193C16.4649 29.233 16.4549 29.269 16.4319 29.289C16.1949 29.834 17.1519 30.196 17.4089 30.538Z" fill="black" />
	<path d="M31.8288 9.81201C32.1708 9.81201 32.5178 9.74301 32.8418 9.63001C32.9298 9.57501 32.7898 9.36601 32.7798 9.28901C32.6978 9.28101 32.6448 9.28101 32.6128 9.28101C32.3568 9.28901 31.9528 9.49701 31.7848 9.56901C31.6608 9.78501 31.7838 9.80401 31.8288 9.81201Z" fill="black" />
	<path d="M28.0619 10.822C28.3729 10.734 28.3729 10.734 28.3899 10.755C28.3619 10.907 28.2829 11.106 28.6179 10.857L29.2709 10.45C29.4269 10.348 29.6209 10.289 29.7629 10.17C29.6829 10.266 29.5839 10.387 29.4989 10.483C29.7019 10.659 30.0679 10.374 30.2599 10.301C30.3619 10.134 30.4639 9.94098 30.4639 9.94098C30.6309 9.79298 30.7319 9.75998 30.7819 9.75898C30.7569 9.73998 30.7219 9.70598 30.6779 9.63098C30.6689 9.63098 30.6689 9.63098 30.6689 9.63098C30.3869 9.86398 30.0519 9.93098 29.6659 9.80398C30.4229 9.43598 27.4189 10.813 27.8079 10.813C27.9049 10.822 27.9769 10.822 28.0619 10.822Z" fill="black" />
	<path d="M29.4168 10.718C29.4168 10.707 29.4168 10.718 29.4078 10.718L29.4048 10.719C29.4088 10.719 29.4128 10.718 29.4168 10.718Z" fill="black" />
	<path d="M29.4052 10.719C28.8972 10.726 28.2932 11.139 29.4052 10.719Z" fill="black" />
	<path d="M34.6249 10.722C34.9209 10.799 34.9789 10.331 34.4789 10.288C34.4589 10.449 34.6079 10.397 34.6879 10.463C34.6439 10.549 34.6249 10.634 34.6249 10.722Z" fill="black" />
	<path d="M44.2688 46.513C43.9718 46.051 43.4998 45.725 43.1318 45.308C42.6938 46.379 42.8638 47.001 44.2688 46.513Z" fill="black" />
	<path d="M47.686 39.076C47.781 39.197 47.873 39.32 47.939 39.46C48.534 38.455 48.299 38.487 47.686 39.076Z" fill="black" />
	<path d="M32.3198 9.00403C32.4438 9.06703 32.6628 9.18003 32.8138 9.18603C34.4788 8.90803 32.9628 8.89403 32.3198 9.00403Z" fill="black" />
	<path d="M32.4438 12.74L32.6548 12.999C34.1108 14.222 31.8938 12.117 32.4438 12.74Z" fill="black" />
	<path d="M36.9511 7.41099C36.8971 7.42499 36.7921 7.48799 36.7661 7.57299C36.7661 7.58899 36.7731 7.58899 36.8061 7.63499C37.0811 7.94599 37.1081 7.39999 36.9511 7.41099Z" fill="black" />
	<path d="M34.2319 11.252C34.1869 11.252 34.1349 11.252 34.0889 11.252C33.8359 11.301 33.7439 11.407 33.8239 11.534C34.1269 11.606 34.5219 11.252 34.2319 11.252Z" fill="black" />
	<path d="M30.8539 10.616C30.9879 10.347 30.3149 10.455 30.2099 10.504C30.0229 10.524 30.1749 10.865 29.9229 10.838C29.8269 10.892 29.6979 10.959 29.5949 11.016L29.9719 11.05C29.3929 11.131 29.0169 11.35 29.0049 11.361C29.5679 11.665 30.0519 11.607 30.4639 11.216C30.5149 11.415 30.6249 11.517 30.7869 11.539C31.1379 11.431 31.5819 11.29 32.0159 11.14C31.7429 11.141 31.4659 11.084 31.4569 11.084C31.2679 10.658 31.2679 10.658 30.8539 10.616Z" fill="black" />
	<path d="M32.9211 10.183C32.8921 10.198 32.7901 10.205 32.2601 10.463C32.2771 10.575 32.3861 10.616 32.4191 10.718C32.3571 10.813 32.2001 10.722 32.1641 10.857C32.2111 10.916 32.3191 10.943 32.3551 11.02C33.4751 10.611 34.3221 10.183 32.9211 10.183Z" fill="black" />
	<path d="M34.8222 9.85498C34.7602 9.90498 34.5722 9.46698 34.5222 9.46698C34.4702 9.46698 34.3992 9.46998 34.3552 9.49698C34.2482 9.83298 34.3802 9.97298 34.7152 9.93898C34.7692 9.90498 34.8122 9.85498 34.8222 9.85498Z" fill="black" />
	<path d="M30.8691 11.538C30.8421 11.539 30.8121 11.542 30.7871 11.539C30.0361 11.77 29.7221 11.847 30.8691 11.538Z" fill="black" />
	<path d="M30.8691 11.538C30.9851 11.534 31.1181 11.507 31.2851 11.427C31.1271 11.469 30.9921 11.505 30.8691 11.538Z" fill="black" />
	<path d="M32.3691 11.089C32.3721 11.061 32.3641 11.039 32.3551 11.02C32.2441 11.06 32.1301 11.1 32.0161 11.14C32.1441 11.139 32.2701 11.129 32.3691 11.089Z" fill="black" />
	<path d="M29.8149 10.812C29.8589 10.828 29.8919 10.833 29.9219 10.837C29.9259 10.835 29.9309 10.832 29.9349 10.83C29.8149 10.812 29.8149 10.812 29.8149 10.812Z" fill="black" />
	<path d="M27.2712 11.837C27.2522 11.837 27.2522 11.837 27.2522 11.837C26.9292 12.005 26.5672 12.05 26.1982 11.979C25.8022 12.428 24.0792 13.798 24.8332 14.105C24.8442 14.108 24.8792 14.123 24.8882 14.141C24.8262 14.416 24.8332 14.45 24.8442 14.474C25.2562 14.547 26.9992 13.877 27.1672 13.289L29.1092 12.701L28.8012 12.37C28.5952 12.083 27.6582 11.991 27.2712 11.837Z" fill="black" />
	<path d="M69.4861 63.75C68.4211 62.962 65.8901 61.283 64.4281 61.701C64.0841 61.475 63.6981 61.355 63.2661 61.355C63.3101 61.212 63.3101 61.212 63.7801 60.56C63.3821 60 63.4831 59.331 63.3481 58.715C61.8761 57.846 60.2431 58.604 59.0771 57.47C59.0771 57.421 59.0771 57.358 59.0771 57.333C59.0521 57.289 59.0151 57.264 58.9971 57.247C58.7591 57.269 58.7591 57.269 58.6621 57.238C58.5941 57.06 58.5941 57.06 58.5581 56.83C57.8551 56.56 57.8551 56.56 57.7581 56.56C57.4051 55.79 56.9121 55.917 56.4091 55.314C56.1041 55.49 56.1041 55.49 55.5931 55.541C55.1021 55.651 55.0031 55.651 54.7781 55.651L53.0061 55.516C52.9951 55.508 51.9931 54.835 51.9871 54.827C50.9291 54.792 50.5501 55.181 50.8161 55.981C50.7121 56.048 50.5931 56.09 50.3501 55.918C50.4201 55.503 50.4201 55.503 50.2511 55.409C50.1371 55.006 50.6401 54.874 50.6401 54.517C50.6201 54.517 50.5931 54.514 50.5691 54.514C48.9071 54.635 47.6061 55.272 47.0481 56.752C46.7971 56.703 46.2701 56.566 45.6461 56.433C46.0381 57.631 44.9941 61.9 44.7261 62.87C44.7241 62.884 44.7301 62.902 44.7301 62.918C44.7241 62.918 44.7181 62.918 44.7121 62.918C44.6611 63.099 44.6491 63.118 44.6961 62.918C44.6911 62.918 44.6871 62.918 44.6821 62.918C44.5431 63.373 43.4611 63.675 43.9611 64.098C43.9781 64.225 43.9781 64.225 43.9841 64.561C49.9411 67.252 50.9791 74.125 47.4441 79.075C47.8151 79.501 47.8751 80.05 47.6211 80.69C47.6471 80.768 47.6471 80.768 47.2601 82.002C47.1991 81.926 47.1991 81.926 47.1021 81.646C47.0661 81.619 47.0221 81.608 46.9981 81.593C46.7781 81.82 46.5501 82.526 46.5501 82.535C46.7971 82.559 46.7971 82.559 46.8711 82.601C46.1591 82.988 45.9841 83.592 46.3271 84.438C46.4511 84.577 46.5751 84.679 46.6991 84.758C46.6241 84.758 46.5491 84.757 46.4481 84.759C46.9981 85.145 47.5881 85.325 48.2181 85.29C48.4741 85.319 48.4741 85.319 48.6321 85.234C48.4501 85.185 48.2891 85.087 48.1831 84.922C48.1221 84.787 48.0331 84.673 47.9151 84.575C47.9611 84.531 48.0071 84.49 48.0521 84.437C48.4671 83.828 49.2841 83.49 49.6901 82.832C49.6711 82.81 49.6551 82.758 49.6551 82.721C48.8731 82.372 49.4701 81.968 49.4761 81.968C49.5281 81.952 49.5481 81.95 49.5731 81.95C49.9431 81.94 49.9431 81.94 50.7611 81.095C51.0171 81.189 51.2181 81.095 51.2991 81.031C51.1571 80.792 50.8441 80.983 50.6871 80.774C50.7251 80.619 50.7251 80.619 50.7961 80.404C51.6701 80.75 52.1701 80.462 52.2831 79.55C53.7861 79.629 54.0081 79.432 54.9331 78.611C54.6441 77.781 54.6841 77.587 54.6841 77.587C55.7241 77.836 58.9961 77.691 58.9961 75.697C59.1991 75.523 59.4721 75.471 59.6671 75.254C61.2491 74.142 63.8631 72.772 65.2631 71.429L66.5101 69.987C66.9321 69.302 67.1351 68.527 67.4971 67.83C69.1891 68.06 71.0621 64.923 69.4861 63.75ZM51.4391 69.77C50.9911 69.684 50.7521 69.429 50.7051 69.011C50.8721 69.038 51.6781 69.728 51.6881 69.728C51.6611 69.741 51.5371 69.763 51.4391 69.77Z" fill="black" />
	<path d="M44.9282 56.295C45.1752 56.338 45.4182 56.386 45.6482 56.435C45.5372 56.099 45.3142 56.003 44.9282 56.295Z" fill="black" />
	<path d="M44.7282 62.871C44.7212 62.871 44.7152 62.871 44.7092 62.871C44.7042 62.892 44.7022 62.901 44.6982 62.919C44.7032 62.919 44.7082 62.919 44.7142 62.919C44.7192 62.902 44.7222 62.89 44.7282 62.871Z" fill="black" />
	<path d="M42.0688 56.6C42.5888 56.847 42.5888 56.847 43.5538 56.779C44.0758 57.335 44.1288 57.398 44.7078 57.117C44.7018 57.074 44.6718 57.018 44.6718 56.986C44.5788 56.938 44.4798 56.865 44.4008 56.814C44.6028 56.576 44.7768 56.409 44.9268 56.295C43.7098 56.082 42.3958 55.996 42.0688 56.6Z" fill="black" />
	<path d="M45.5828 49.024C45.5828 49.024 45.5828 49.024 45.5898 49.024C45.5988 49.024 45.6268 48.997 45.6318 48.989C45.5018 48.419 45.1778 48.1 44.6648 48.043C44.1398 47.972 42.8718 47.653 42.3238 47.782C41.2878 48.071 41.1298 48.219 40.9868 48.344C41.0308 48.745 41.6458 48.556 42.9968 48.112C43.8658 48.331 44.7278 48.821 45.5828 49.024Z" fill="black" />
	<path d="M47.357 51.013C47.29 50.937 47.1481 50.811 45.9771 50.798C46.0341 50.862 47.176 52.139 47.357 51.013Z" fill="black" />
	<path d="M78.9018 24.75C78.8868 24.763 78.8328 24.783 78.7788 24.905C78.7888 24.926 78.7958 24.938 78.7958 24.959L79.0008 25.129C79.4108 25.538 79.4108 25.538 79.4278 25.532C79.4278 25.15 79.2538 24.893 78.9018 24.75Z" fill="black" />
	<path d="M44.994 0C20.185 0 0 20.188 0 45.006C0 69.813 20.185 90 44.994 90C69.812 90 90 69.813 90 45.006C90 20.188 69.812 0 44.994 0ZM10.828 19.288C10.885 19.253 10.938 19.218 10.995 19.19C10.788 20.135 10.054 20.673 9.411 21.285C9.865 20.605 10.337 19.939 10.828 19.288ZM86.968 38.407C86.959 38.378 86.959 38.378 86.959 38.378C86.872 38.554 86.868 38.757 86.77 38.924C86.666 38.825 86.585 38.696 86.479 38.592C85.676 39.794 85.676 39.794 84.532 39.553C84.42 40.273 80.847 48.187 81.129 49.36C80.189 48.885 83.222 58.276 83.787 58.716C84.153 58.598 84.19 58.148 84.518 57.99C84.779 58.27 84.861 58.671 85.116 58.96C85.201 58.933 85.201 58.933 85.457 58.745C85.457 58.814 85.443 58.879 85.439 58.946C79.642 75.707 63.709 87.784 44.995 87.784C21.405 87.784 2.218 68.591 2.218 45.005C2.218 38.388 3.728 32.118 6.42 26.52C6.48 26.438 6.528 26.349 6.563 26.25C6.559 26.256 6.545 26.274 6.538 26.285C7.171 24.989 7.869 23.732 8.625 22.514C8.687 22.695 8.644 22.823 8.402 23.51C8.479 23.549 8.593 23.582 8.673 23.617C8.752 23.561 8.858 23.499 8.926 23.443C8.956 23.528 8.989 23.631 9.016 23.708C8.388 24.596 7.52 25.225 6.773 25.995C8.901 25.183 9.912 23.115 11.514 21.703C11.41 22.152 10.989 22.361 10.74 22.702C10.784 22.776 10.844 22.867 10.89 22.932C11.328 22.844 11.736 22.457 12.358 21.858C12.969 22.658 14.154 22.737 14.163 22.737C14.771 23.829 14.771 23.829 15.459 23.804C15.758 24.268 15.728 24.352 15.632 24.676C15.81 24.789 15.925 25.092 15.965 25.295L16.197 25.536C15.833 26.768 16.909 27.736 16.792 28.909C16.909 29.027 17.101 29.161 17.267 29.236L17.408 29.286C17.397 29.286 17.386 29.286 17.375 29.286C17.624 29.418 18.289 29.772 19.01 30.83C18.889 31.216 18.808 31.503 18.353 31.503C18.29 31.37 18.186 31.206 18.116 31.082C18.029 31.073 17.925 31.073 17.843 31.06C12.624 37.766 23.966 42.106 21.449 45.081C21.925 45.652 22.841 45.436 23.237 46.127C23.193 46.283 23.111 46.495 23.043 46.627C23.237 47.204 23.765 47.427 24.83 47.912C21.978 44.174 21.502 42.624 21.441 42.358C21.52 42.322 21.633 42.273 21.723 42.246C21.961 42.35 22.303 42.498 22.577 42.889L25.049 46.257C27.319 48.869 27.319 48.869 26.987 49.569C30.283 53.519 38.721 50.987 41.308 55.111C41.124 55.272 40.862 55.336 40.702 55.541C41.423 56.445 42.152 56.268 42.569 56.166C42.383 55.734 41.987 55.394 41.899 54.912C42.647 53.023 41.987 52.193 39.947 52.433C39.356 52.433 38.889 52.433 38.43 52.433C38.378 51.37 39.446 50.675 39.38 49.608C39.514 49.489 39.671 49.334 39.797 49.212C39.213 48.906 37.377 49.079 37.35 49.079C35.151 51.776 33.39 51.391 32.073 47.961L32.474 44.921C33.845 42.179 41.529 43.135 43.061 44.476C42.952 44.546 42.842 44.693 42.795 44.822C42.887 45.003 43.005 45.161 43.135 45.308C43.897 43.443 46.5 40.216 47.689 39.077C47.343 38.641 46.875 38.287 46.704 37.724C46.916 37.457 46.916 37.457 47.389 37.071C47.38 37.236 47.362 37.449 47.374 37.605C47.628 37.724 47.795 37.793 48.171 37.543C48.086 37.392 47.989 37.194 47.902 37.048C48.878 37.483 48.989 36.655 49.075 36C49.393 35.889 49.446 35.843 49.493 35.511C50.066 35.658 50.849 35.858 51.454 35.477C50.426 34.24 53.16 33.969 53.927 33.129C54.603 33.104 55.275 32.896 55.95 33C54.833 32.982 54.286 33.723 54.242 33.813C55.679 33.703 57.016 33.302 58.263 32.64C58.245 32.578 58.229 32.478 58.208 32.419C57.954 32.29 57.93 32.276 57.845 31.872C57.474 31.899 57.365 31.955 57.016 32.681C56.732 32.692 56.356 32.732 56.06 32.752L55.492 32.475L54.807 31.754C54.868 31.655 54.947 31.493 54.999 31.372C54.719 31.254 54.719 31.254 54.348 31.084C54.868 31.007 54.868 31.007 55.148 30.796C55.128 30.621 55.076 30.493 55.005 30.391C56.758 30.046 60.097 28.003 60.084 27.755C60.043 27.39 59.874 27.249 59.636 27.044C58.961 27.172 58.944 27.138 58.724 26.277C57.172 24.965 55.622 23.677 54.076 22.383C53.989 22.383 53.88 22.383 53.792 22.383C51.095 23.988 48.48 23.471 45.938 20.859C45.912 21.798 45.912 21.798 46.455 22.574C46.255 22.83 45.982 23.026 45.77 23.296C47.655 24.799 47.452 25.802 45.182 26.331C45.859 29.288 45.191 29.763 43.167 27.744C43.202 26.879 43.202 26.865 43.167 26.25C42.707 25.926 38.442 24.61 38.206 24.571C38.185 24.571 38.185 24.571 38.185 24.571C37.756 24.596 37.331 24.628 36.909 24.659C36.901 24.441 36.929 24.142 36.955 23.939C36.591 23.425 35.856 23.618 35.459 23.14C35.722 21.859 35.722 21.859 38.346 20.264C38.299 20.189 38.257 20.076 38.23 20.004C38.387 19.889 38.628 19.741 38.808 19.652C39.746 19.337 40.482 19.17 41.211 18.027C41.106 17.933 40.968 17.802 40.878 17.706C41.593 17.879 42.938 18.191 43.93 17.137C43.589 16.588 43.589 16.588 43.492 16.349C43.661 16.272 43.891 16.173 44.054 16.09C44.049 16.079 42.479 14.903 41.814 15.476C42.121 16.09 41.107 17.152 40.66 17.267C40.344 16.997 40.333 16.997 40.185 16.495C40.222 16.423 40.299 16.342 40.343 16.272C40.245 16.129 40.079 15.935 39.928 15.825C39.563 15.899 39.498 15.916 39.333 16.349C38.829 16.202 38.687 15.621 38.207 15.44C38.347 15.319 38.503 15.14 38.616 14.998C38.555 14.877 38.555 14.877 37.651 13.863C37.826 13.57 37.869 13.501 38.15 13.191C38.901 13.228 38.901 13.228 39.753 12.454C39.394 12.328 39.232 12.259 38.15 12.225C37.783 12.264 36.863 12.328 37.28 13.725C36.28 15.252 36.28 15.252 37.456 15.497C37.352 15.621 37.218 15.796 37.14 15.944C37.218 15.985 37.314 16.021 37.399 16.062C37.287 16.348 37.287 16.348 36.417 16.708C36.367 16.878 36.263 17.092 36.137 17.241C36.078 17.18 35.982 17.111 35.916 17.064C34.97 16.428 33.929 16.077 32.789 16.009C32.999 15.961 33.21 15.883 33.422 15.742C33.254 15.731 33.085 15.731 32.906 15.731C32.882 15.725 32.837 15.722 32.811 15.707C32.82 15.592 32.836 15.528 34.122 15.277C34.133 15.277 34.158 15.277 34.167 15.277C34.07 15.234 33.944 15.173 33.848 15.127C33.472 14.995 32.501 14.592 32.466 14.51C32.724 14.127 32.812 13.709 32.731 13.254C32.595 13.065 31.801 12.786 31.791 12.786C31.685 12.904 31.465 13.622 31.555 13.889C31.182 13.756 30.946 13.473 30.861 13.068C30.825 13.153 30.782 13.255 30.743 13.339C30.267 13.665 30.067 13.631 30.164 13.235C29.77 13.226 29.384 13.247 29.004 13.287C29.059 13.104 29.384 13.169 29.356 12.938C28.966 12.765 26.821 13.677 26.804 14.017C26.804 14.032 26.839 14.035 26.848 14.056L27.201 14.238C27.509 14.284 27.78 14.166 28.09 14.211C28.09 14.211 28.09 14.238 28.09 14.244C27.852 14.405 27.291 14.447 26.86 14.461C27.608 14.7 28.381 14.875 29.172 14.964C28.563 15.376 25.171 15.518 28.053 15.76C28.038 15.878 28.002 16.054 27.986 16.172C28.071 16.233 28.071 16.233 28.963 16.214C28.997 16.214 28.997 16.214 28.997 16.214C29.086 16.2 29.223 16.186 30.112 16.069C30.396 15.663 30.977 15.968 31.266 15.592C31.299 15.567 31.299 15.567 31.299 15.567C31.607 15.825 31.913 15.963 32.221 16.018C31.992 16.023 31.767 16.015 31.53 16.042C31.083 15.997 31.022 15.995 30.166 16.27C30.254 16.297 30.382 16.329 30.467 16.347C30.688 16.389 30.688 16.389 30.688 16.389C30.792 16.374 30.916 16.359 31.023 16.347C30.406 17.053 30.352 17.037 29.102 16.751C29.086 16.745 29.042 16.745 29.015 16.745C27.262 16.877 27.262 16.877 27.106 16.861C27.106 16.778 27.106 16.673 27.089 16.586C27.257 16.52 27.457 16.386 27.556 16.244L24.06 15.55C24.06 15.474 24.06 15.341 24.06 15.257C23.754 15.268 23.533 15.495 23.244 15.567C23.215 15.341 23.129 15.048 23.05 14.841C22.961 14.853 22.848 14.853 22.77 14.853C22.454 15.25 22.401 15.257 22.063 15.386C21.89 15.438 21.89 15.438 21.89 15.438C21.821 15.386 21.746 15.308 21.695 15.257C18.14 15.822 18.14 15.822 16.573 14.866C16.504 14.901 16.4 14.94 16.311 14.963C16.133 14.504 16.081 14.471 15.773 14.317C15.392 14.461 15.046 14.641 14.706 14.828C22.457 7.041 33.178 2.214 45.006 2.214C59.451 2.214 72.237 9.414 79.989 20.407C80.185 21.379 82.11 23.988 82.126 24.011C82.161 23.989 82.175 23.974 82.139 23.78C82.273 24.013 82.411 24.244 82.541 24.479C82.552 28.879 82.741 37.637 84.606 39.306C84.687 39.238 84.711 39.202 84.772 38.867C84.975 38.838 85.24 38.805 85.432 38.769C85.67 38.162 85.67 38.162 85.732 37.58C85.687 37.519 85.617 34.401 85.577 34.189C85.636 34.168 85.636 34.168 86.157 34.643C86.254 34.322 86.053 33.995 86.254 33.701C86.254 33.701 86.264 33.713 86.279 33.734C86.37 34.067 86.459 34.4 86.542 34.736C86.526 34.763 86.509 34.822 86.496 34.871C86.677 35.602 86.683 35.616 86.693 35.641C86.705 35.549 86.692 35.46 86.689 35.37C86.734 35.566 86.782 35.762 86.825 35.958C86.797 35.912 86.767 35.874 86.734 35.855C86.734 35.865 86.734 35.871 86.734 35.886C86.946 37.231 87.051 37.408 87.066 37.178C87.149 37.627 87.237 38.075 87.306 38.531C87.242 38.571 87.174 38.621 87.113 38.662C87.061 38.592 86.995 38.484 86.968 38.407ZM24.253 18.313C24.148 18.338 24.008 18.398 23.9 18.422C23.846 18.682 23.497 18.89 23.153 18.887C23.224 18.695 23.442 18.646 23.542 18.492C23.542 18.492 23.542 18.485 23.529 18.476C23.107 18.659 22.662 18.751 22.194 18.771C22.539 18.397 22.962 18.197 23.453 18.169C23.224 17.65 22.528 18.065 22.116 18.065C22.106 18.056 22.08 18.056 22.071 18.052C22.495 17.937 23.467 17.495 23.979 17.379C23.958 17.245 23.998 17.248 24.082 17.359C24.292 17.328 24.38 17.382 24.233 17.595C24.713 18.406 25.56 20.306 24.253 18.313ZM25.802 21.596C24.773 21.478 25 22.523 23.673 21.747C24.184 21.629 24.668 21.465 25.132 21.25C24.808 20.665 24.808 20.665 24.826 20.638C25.22 20.769 25.628 20.92 26.03 21.091C26.659 20.487 27.398 20.314 28.242 20.575C27.606 20.825 25.744 21.584 25.802 21.596ZM28.774 23.171C27.993 23.444 26.946 23.776 26.161 24.011C25.162 23.08 28.65 23.107 28.774 23.171ZM32.639 29.093C32.971 29.276 33.25 29.286 33.518 29.287C33.251 29.287 32.985 29.288 32.718 29.288L32.333 29.242C32.101 28.802 32.098 28.774 32.164 28.317C32.57 29.005 32.57 29.005 32.639 29.093ZM32.419 26.997C32.589 26.865 32.725 26.865 32.867 26.865C33.907 28.373 33.968 28.505 33.8 29.183L33.714 29.287C33.667 29.287 33.619 29.287 33.572 29.287C33.455 28.611 33.455 28.611 33.201 28.244C33.12 28.268 32.999 28.29 32.921 28.317C32.218 27.517 32.218 27.517 32.419 26.997ZM47.087 33.735C48.167 34.714 45.02 34.402 45.063 34.399C44.992 34.417 44.894 34.461 44.816 34.485C44.905 34.072 45.212 34.011 45.81 33.853C46.206 33.729 46.594 33.762 46.981 33.967C47.076 33.968 47.168 33.902 47.087 33.735ZM45.59 34.715C45.583 34.724 45.583 34.724 45.571 34.736C44.499 35.688 43.396 35.929 42.255 35.455C42.404 35.036 45.259 34.757 45.59 34.715ZM43.792 33.157L43.444 34.178C43.505 34.518 43.33 34.645 42.942 34.571C42.925 34.379 42.896 34.142 42.872 33.961C42.626 34.013 42.415 34.197 42.148 34.17C42.115 34.135 42.086 34.082 42.08 33.879C42.555 33.217 42.346 32.821 41.427 32.676C36.334 35.95 40.715 32.564 41.438 32.467L41.746 32.361C40.249 31.957 38.296 32.421 36.883 31.874C36.857 31.853 36.819 31.839 36.793 31.828C37.831 31.21 37.831 31.21 37.999 31.22C39.494 31.077 43.77 31.47 44.888 33.304C44.788 33.702 44.417 33.658 43.792 33.157Z" fill="black" />
	<path d="M23.979 17.382C23.991 17.462 24.019 17.578 24.086 17.78C24.15 17.709 24.196 17.65 24.232 17.598C24.175 17.503 24.123 17.418 24.081 17.362C24.05 17.367 24.016 17.374 23.979 17.382Z" fill="black" />
	<path d="M82.5042 26.84C82.4662 26.914 82.4572 26.939 82.4572 26.956L82.4382 26.96C82.3332 26.9 82.5192 27.474 82.5362 27.021L82.5042 26.837V26.84Z" fill="black" />
	<path d="M46.838 49.473C46.329 49.703 46.323 49.78 46.323 49.825C46.242 49.73 48.475 49.808 48.124 49.842C49.603 49.707 46.06 48.71 46.05 48.71C45.934 48.814 45.789 48.971 45.687 49.08C45.687 49.276 45.882 49.405 46.838 49.473Z" fill="black" />
	<path d="M47.3758 80.775C47.2968 80.768 47.1908 80.751 47.1098 80.732V80.751C47.0028 81.49 47.2418 81.402 47.3758 80.775Z" fill="black" />
	<path d="M41.8281 12.432C41.8661 12.427 41.9151 12.42 41.9461 12.417C41.8991 12.375 41.8601 12.386 41.8281 12.432Z" fill="black" />
	<path d="M61.3641 31.337C61.5071 31.096 62.1301 31.018 62.0521 30.571C61.9451 30.509 61.1611 30.778 61.8231 30.287C61.8231 30.287 61.8231 30.266 61.8231 30.255C61.1721 29.589 59.3151 30.287 60.0961 29.288C60.3101 29.04 60.3181 28.793 60.1501 28.532C60.0921 28.565 59.9921 28.601 59.9221 28.617C59.8181 28.732 59.4881 29.065 59.3841 29.288C58.2051 32.051 58.6391 31.133 61.3641 31.337Z" fill="black" />
	<path d="M62.1132 31.249C61.7452 31.372 61.6042 31.655 61.7162 32.064C62.5532 32.503 62.8032 31.361 62.1242 31.249C62.1132 31.249 62.1132 31.249 62.1132 31.249Z" fill="black" />
	<path d="M50.675 16.022C50.727 15.935 50.727 15.935 51.301 15.78C50.474 14.246 42.421 11.93 41.879 13.215C41.941 13.327 41.941 13.327 42.187 13.432C42.187 13.453 42.187 13.453 41.791 13.68C41.809 13.749 41.809 13.749 42.086 13.986C41.723 14.629 41.616 12.732 41.828 12.432C41.096 12.515 39.277 12.879 39.574 14.241C39.608 14.268 39.66 14.287 39.682 14.297C39.844 14.32 40.019 14.32 40.714 14.464C39.994 14.5 39.994 14.5 39.904 14.548C40.052 15.345 44.048 15.611 45.258 14.905C45.738 15.068 46.46 15.441 46.837 15.781C46.779 15.869 46.681 15.917 46.63 16.008C46.798 16.266 47.128 16.169 47.375 16.046C50.051 17.057 48.07 17.041 48.166 18.542C42.441 21.218 52.753 21.063 52.819 21.018C52.513 20.4 51.802 20.339 51.346 19.948C51.363 19.919 51.37 19.897 51.387 19.884C52.108 20.076 52.67 20.807 53.544 20.486C53.041 19.467 52.302 18.698 51.282 18.216C51.491 17.434 52.941 18.266 53.143 18.47C53.453 18.807 53.683 18.907 53.745 18.879L54.518 18.216C54.666 18.046 54.713 17.72 54.713 17.709C54.593 16.853 51.348 16.723 50.675 16.022Z" fill="black" />
	<path d="M60.4859 19.789L62.2119 21.492C62.2039 21.465 62.2639 21.511 62.2799 21.522C65.2369 22.475 66.0189 23.216 65.0979 20.698C65.2539 20.386 65.5459 20.135 65.5979 19.77C65.5879 19.755 65.5879 19.755 65.3699 19.616C65.3429 19.505 65.3429 19.505 65.4389 19.362C65.4289 19.292 65.4109 19.204 65.3859 19.135L65.2079 18.89C65.7729 18.973 65.4819 18.451 65.9759 18.17C65.9819 18.112 66.0009 18.027 66.0009 17.97C66.0509 17.942 66.1319 17.92 66.1959 17.907C66.2479 17.975 66.2479 17.975 66.2659 18.214C67.1619 18.028 67.5389 17.954 67.7339 16.235C67.8129 16.318 67.9119 16.449 67.9699 16.538C68.8869 16.266 70.0199 15.917 69.8189 15.149C69.3679 14.898 68.8509 15.017 68.3949 14.844C68.4899 14.759 68.4899 14.759 68.5869 14.595C68.2259 14.353 68.2259 14.353 68.1289 14.18C68.8069 13.968 68.9389 14.998 69.6009 14.795C69.6519 14.698 69.6519 14.698 67.6479 13.257C67.9459 13.257 68.1569 13.559 68.4649 13.521C68.4829 13.486 68.4889 13.453 68.4889 13.429C68.3159 13.2 67.8469 12.908 67.5929 12.746C67.9699 12.864 68.1449 12.76 68.0939 12.428C68.0079 12.417 67.9379 12.405 67.4869 12.166C67.6839 12.098 67.7069 12.098 67.9789 12.098C67.4869 11.189 66.4229 10.957 65.7279 10.279C65.7729 10.219 65.8079 10.17 65.8439 10.106C65.9459 10.134 66.0719 10.093 66.1839 10.106C66.1139 9.78598 63.7469 7.83698 63.3699 7.47398C63.4049 7.44098 63.4579 7.36999 63.5219 7.34299C63.4579 6.36399 61.3109 7.31898 61.3379 6.81598C61.2069 6.74198 61.0229 6.65098 60.8909 6.57698C60.8259 6.64298 58.8279 6.66498 58.8109 6.66498C58.8039 6.64398 58.7879 6.61299 58.7739 6.58799C58.9959 6.43799 58.9959 6.43798 60.5099 6.38698C60.5289 6.35198 60.5549 6.32499 60.5639 6.30499C60.4769 5.89099 58.0199 5.59698 57.9959 5.59698C57.2369 5.65398 57.2369 5.65399 56.2519 5.63999C56.2359 5.72299 56.2059 5.81998 56.1899 5.91098L55.6729 5.86899C54.8739 6.17399 54.7149 6.42698 55.1539 6.62698C54.7219 6.51898 54.2909 6.41998 53.8569 6.29598C52.7879 6.43898 51.6939 6.58898 50.6199 6.74298C50.6729 6.90198 50.7109 6.94898 50.8869 7.11598C50.8769 7.12698 50.8769 7.16598 50.8769 7.18198C50.3739 7.18198 49.9419 7.18198 49.2499 7.86298C50.0409 8.03398 50.0409 8.03399 50.0999 8.05499C49.4409 8.77499 48.6079 9.16498 47.5779 9.26698C47.5489 9.29098 47.5309 9.31898 47.5259 9.35398L47.8769 9.49298C48.4569 9.64798 49.0349 9.64099 49.6189 9.71799C49.3659 10.081 48.9139 9.92399 48.5889 10.081C52.3029 11.372 56.1389 11.243 58.5859 14.618C58.1899 15.104 57.4589 14.132 57.2479 14.727C57.3609 14.803 57.4589 14.88 57.5529 14.957C57.5259 14.953 57.5049 14.948 57.4759 14.944C57.0319 15.373 57.6779 15.601 58.1689 15.627C58.9679 16.86 58.2639 18.134 60.3899 19.424C60.4349 19.714 60.4859 19.771 60.4859 19.789Z" fill="black" />
	<path d="M45.0438 20.847C44.7988 20.805 44.6128 20.885 44.4878 21.062C44.5458 21.124 44.7268 21.363 44.8598 21.374C45.5018 21.44 45.2908 20.832 45.0438 20.847Z" fill="black" />
	<path d="M46.144 17.094C46.181 17.243 46.258 17.312 46.391 17.292C46.734 17.292 47.058 17.183 47.358 16.971C47.466 16.174 46.305 16.545 46.144 17.094Z" fill="black" />
	<path d="M49.151 48.219L48.845 48.085L48.644 48.219C48.874 48.36 48.979 48.561 49.151 48.219Z" fill="black" />
	<path d="M49.646 49.212C49.698 49.143 49.761 49.073 49.789 48.997C49.674 48.997 49.572 48.997 49.462 48.997C49.442 49.079 49.574 49.247 49.646 49.212Z" fill="black" />
	<path d="M54.452 50.705C54.224 50.705 53.974 50.725 53.747 50.77C53.686 50.716 54.812 51.104 54.452 50.705Z" fill="black" />
	<path d="M50.7272 48.658C50.6952 48.679 50.6072 48.679 50.2642 48.766L50.8082 48.848C50.8082 48.658 50.7532 48.658 50.7272 48.658Z" fill="black" />
	<path d="M49.7332 50.392C50.2982 50.716 50.2982 50.725 50.3512 50.819C50.5072 51.14 52.2762 50.795 52.4692 50.631C52.2762 50.484 52.1902 50.282 52.2262 50.014C52.2262 50.014 51.2662 49.703 51.0452 49.737C50.3332 50.014 49.5282 50.052 48.9492 50.582C49.1992 50.534 49.5142 50.449 49.7332 50.392Z" fill="black" />
</svg>
